<?xml version="1.0" encoding="utf-8" standalone="no"?>
<!DOCTYPE svg PUBLIC "-//W3C//DTD SVG 1.1//EN"
  "http://www.w3.org/Graphics/SVG/1.1/DTD/svg11.dtd">
<svg height="296.622613pt" version="1.1" viewBox="0 0 381.0075 296.622613" width="381.0075pt" xmlns="http://www.w3.org/2000/svg" xmlns:xlink="http://www.w3.org/1999/xlink">
 <metadata>
  <rdf:RDF xmlns:cc="http://creativecommons.org/ns#" xmlns:dc="http://purl.org/dc/elements/1.1/" xmlns:rdf="http://www.w3.org/1999/02/22-rdf-syntax-ns#">
   <cc:Work>
    <dc:type rdf:resource="http://purl.org/dc/dcmitype/StillImage"/>
    <dc:date>2024-01-11T09:49:59.838154</dc:date>
    <dc:format>image/svg+xml</dc:format>
    <dc:creator>
     <cc:Agent>
      <dc:title>Matplotlib v3.4.3, https://matplotlib.org/</dc:title>
     </cc:Agent>
    </dc:creator>
   </cc:Work>
  </rdf:RDF>
 </metadata>
 <defs>
  <style type="text/css">*{stroke-linecap:butt;stroke-linejoin:round;}</style>
 </defs>
 <g id="figure_1">
  <g id="patch_1">
   <path d="M -0 296.622613 
L 381.0075 296.622613 
L 381.0075 0 
L -0 0 
z
" style="fill:#ffffff;"/>
  </g>
  <g id="axes_1">
   <g id="patch_2">
    <path d="M 69.085938 129.277608 
L 182.867756 129.277608 
L 182.867756 20.14375 
L 69.085938 20.14375 
z
" style="fill:#ffffff;"/>
   </g>
   <g id="PathCollection_1"/>
   <g id="PathCollection_2"/>
   <g id="PathCollection_3"/>
   <g id="PathCollection_4"/>
   <g id="PathCollection_5">
    <path clip-path="url(#pa938037f16)" d="M 91.842301 129.277608 
L 103.220483 129.277608 
L 114.598665 129.277608 
L 125.976847 129.277608 
L 136.936501 129.277608 
L 133.091273 120.18312 
L 125.976847 112.635409 
L 123.715921 111.088632 
L 114.598665 103.570215 
L 112.508319 101.994144 
L 107.681553 98.428447 
L 103.220483 101.994144 
L 91.842301 111.088632 
L 80.464119 120.18312 
L 80.464119 129.277608 
z
" style="fill:#6f8ca1;"/>
   </g>
   <g id="PathCollection_6">
    <path clip-path="url(#pa938037f16)" d="M 137.355028 129.277608 
L 148.73321 129.277608 
L 160.111392 129.277608 
L 171.489574 129.277608 
L 182.867756 129.277608 
L 182.867756 120.18312 
L 182.867756 111.088632 
L 182.867756 106.223526 
L 180.601005 101.994144 
L 175.860082 92.899656 
L 171.606199 83.805167 
L 171.489574 83.546268 
L 164.281048 74.710679 
L 160.111392 71.715431 
L 152.695169 65.616191 
L 148.73321 62.796873 
L 144.531717 59.879922 
L 137.355028 65.616191 
L 125.976847 74.710679 
L 114.598665 83.805167 
L 114.598665 92.899656 
L 107.681553 98.428447 
L 112.508319 101.994144 
L 114.598665 103.570215 
L 123.715921 111.088632 
L 125.976847 112.635409 
L 133.091273 120.18312 
L 136.936501 129.277608 
z
" style="fill:#4f728c;"/>
   </g>
   <g id="PathCollection_7">
    <path clip-path="url(#pa938037f16)" d="M 182.867756 106.223526 
L 182.867756 101.994144 
L 182.867756 92.899656 
L 182.867756 83.805167 
L 182.867756 74.710679 
L 182.867756 65.616191 
L 182.867756 56.521703 
L 182.867756 47.427215 
L 182.867756 38.332726 
L 182.867756 29.238238 
L 182.867756 20.14375 
L 182.867756 17.860222 
L 176.657772 11.049262 
L 171.489574 11.049262 
L 171.489574 20.14375 
L 171.489574 29.238238 
L 171.489574 38.332726 
L 160.111392 47.427215 
L 148.73321 56.521703 
L 144.531717 59.879922 
L 148.73321 62.796873 
L 152.695169 65.616191 
L 160.111392 71.715431 
L 164.281048 74.710679 
L 171.489574 83.546268 
L 171.606199 83.805167 
L 175.860082 92.899656 
L 180.601005 101.994144 
z
" style="fill:#2f5978;"/>
   </g>
   <g id="PathCollection_8">
    <path clip-path="url(#pa938037f16)" d="M 182.867756 17.860222 
L 182.867756 11.049262 
L 176.657772 11.049262 
z
" style="fill:#0f3f63;"/>
   </g>
   <g id="matplotlib.axis_1">
    <g id="xtick_1">
     <g id="line2d_1">
      <defs>
       <path d="M 0 0 
L 0 3.5 
" id="m4c578ea9e7" style="stroke:#000000;stroke-width:0.8;"/>
      </defs>
      <g>
       <use style="stroke:#000000;stroke-width:0.8;" x="91.842301" xlink:href="#m4c578ea9e7" y="129.277608"/>
      </g>
     </g>
    </g>
    <g id="xtick_2">
     <g id="line2d_2">
      <g>
       <use style="stroke:#000000;stroke-width:0.8;" x="137.355028" xlink:href="#m4c578ea9e7" y="129.277608"/>
      </g>
     </g>
    </g>
    <g id="xtick_3">
     <g id="line2d_3">
      <g>
       <use style="stroke:#000000;stroke-width:0.8;" x="182.867756" xlink:href="#m4c578ea9e7" y="129.277608"/>
      </g>
     </g>
    </g>
   </g>
   <g id="matplotlib.axis_2">
    <g id="ytick_1">
     <g id="line2d_4">
      <defs>
       <path d="M 0 0 
L -3.5 0 
" id="m738d881ac4" style="stroke:#000000;stroke-width:0.8;"/>
      </defs>
      <g>
       <use style="stroke:#000000;stroke-width:0.8;" x="69.085938" xlink:href="#m738d881ac4" y="115.635876"/>
      </g>
     </g>
     <g id="text_1">
      <!-- 5 -->
      <g transform="translate(57.085938 119.107751)scale(0.1 -0.1)">
       <defs>
        <path d="M 2778 4238 
L 2534 3706 
L 1259 3706 
L 981 3138 
Q 1809 3016 2294 2522 
Q 2709 2097 2709 1522 
Q 2709 1188 2573 903 
Q 2438 619 2231 419 
Q 2025 219 1772 97 
Q 1413 -75 1034 -75 
Q 653 -75 479 54 
Q 306 184 306 341 
Q 306 428 378 495 
Q 450 563 559 563 
Q 641 563 702 538 
Q 763 513 909 409 
Q 1144 247 1384 247 
Q 1750 247 2026 523 
Q 2303 800 2303 1197 
Q 2303 1581 2056 1914 
Q 1809 2247 1375 2428 
Q 1034 2569 447 2591 
L 1259 4238 
L 2778 4238 
z
" id="TimesNewRomanPSMT-35" transform="scale(0.015625)"/>
       </defs>
       <use xlink:href="#TimesNewRomanPSMT-35"/>
      </g>
     </g>
    </g>
    <g id="ytick_2">
     <g id="line2d_5">
      <g>
       <use style="stroke:#000000;stroke-width:0.8;" x="69.085938" xlink:href="#m738d881ac4" y="92.899656"/>
      </g>
     </g>
     <g id="text_2">
      <!-- 10 -->
      <g transform="translate(52.085938 96.371531)scale(0.1 -0.1)">
       <defs>
        <path d="M 750 3822 
L 1781 4325 
L 1884 4325 
L 1884 747 
Q 1884 391 1914 303 
Q 1944 216 2037 169 
Q 2131 122 2419 116 
L 2419 0 
L 825 0 
L 825 116 
Q 1125 122 1212 167 
Q 1300 213 1334 289 
Q 1369 366 1369 747 
L 1369 3034 
Q 1369 3497 1338 3628 
Q 1316 3728 1258 3775 
Q 1200 3822 1119 3822 
Q 1003 3822 797 3725 
L 750 3822 
z
" id="TimesNewRomanPSMT-31" transform="scale(0.015625)"/>
        <path d="M 231 2094 
Q 231 2819 450 3342 
Q 669 3866 1031 4122 
Q 1313 4325 1613 4325 
Q 2100 4325 2488 3828 
Q 2972 3213 2972 2159 
Q 2972 1422 2759 906 
Q 2547 391 2217 158 
Q 1888 -75 1581 -75 
Q 975 -75 572 641 
Q 231 1244 231 2094 
z
M 844 2016 
Q 844 1141 1059 588 
Q 1238 122 1591 122 
Q 1759 122 1940 273 
Q 2122 425 2216 781 
Q 2359 1319 2359 2297 
Q 2359 3022 2209 3506 
Q 2097 3866 1919 4016 
Q 1791 4119 1609 4119 
Q 1397 4119 1231 3928 
Q 1006 3669 925 3112 
Q 844 2556 844 2016 
z
" id="TimesNewRomanPSMT-30" transform="scale(0.015625)"/>
       </defs>
       <use xlink:href="#TimesNewRomanPSMT-31"/>
       <use x="50" xlink:href="#TimesNewRomanPSMT-30"/>
      </g>
     </g>
    </g>
    <g id="ytick_3">
     <g id="line2d_6">
      <g>
       <use style="stroke:#000000;stroke-width:0.8;" x="69.085938" xlink:href="#m738d881ac4" y="70.163435"/>
      </g>
     </g>
     <g id="text_3">
      <!-- 15 -->
      <g transform="translate(52.085938 73.63531)scale(0.1 -0.1)">
       <use xlink:href="#TimesNewRomanPSMT-31"/>
       <use x="50" xlink:href="#TimesNewRomanPSMT-35"/>
      </g>
     </g>
    </g>
    <g id="ytick_4">
     <g id="line2d_7">
      <g>
       <use style="stroke:#000000;stroke-width:0.8;" x="69.085938" xlink:href="#m738d881ac4" y="47.427215"/>
      </g>
     </g>
     <g id="text_4">
      <!-- 20 -->
      <g transform="translate(52.085938 50.89909)scale(0.1 -0.1)">
       <defs>
        <path d="M 2934 816 
L 2638 0 
L 138 0 
L 138 116 
Q 1241 1122 1691 1759 
Q 2141 2397 2141 2925 
Q 2141 3328 1894 3587 
Q 1647 3847 1303 3847 
Q 991 3847 742 3664 
Q 494 3481 375 3128 
L 259 3128 
Q 338 3706 661 4015 
Q 984 4325 1469 4325 
Q 1984 4325 2329 3994 
Q 2675 3663 2675 3213 
Q 2675 2891 2525 2569 
Q 2294 2063 1775 1497 
Q 997 647 803 472 
L 1909 472 
Q 2247 472 2383 497 
Q 2519 522 2628 598 
Q 2738 675 2819 816 
L 2934 816 
z
" id="TimesNewRomanPSMT-32" transform="scale(0.015625)"/>
       </defs>
       <use xlink:href="#TimesNewRomanPSMT-32"/>
       <use x="50" xlink:href="#TimesNewRomanPSMT-30"/>
      </g>
     </g>
    </g>
    <g id="ytick_5">
     <g id="line2d_8">
      <g>
       <use style="stroke:#000000;stroke-width:0.8;" x="69.085938" xlink:href="#m738d881ac4" y="24.690994"/>
      </g>
     </g>
     <g id="text_5">
      <!-- 25 -->
      <g transform="translate(52.085938 28.162869)scale(0.1 -0.1)">
       <use xlink:href="#TimesNewRomanPSMT-32"/>
       <use x="50" xlink:href="#TimesNewRomanPSMT-35"/>
      </g>
     </g>
    </g>
    <g id="text_6">
     <!-- Payload in t -->
     <g transform="translate(45.928125 98.597398)rotate(-90)scale(0.1 -0.1)">
      <defs>
       <path d="M 1313 1984 
L 1313 750 
Q 1313 350 1400 253 
Q 1519 116 1759 116 
L 1922 116 
L 1922 0 
L 106 0 
L 106 116 
L 266 116 
Q 534 116 650 291 
Q 713 388 713 750 
L 713 3488 
Q 713 3888 628 3984 
Q 506 4122 266 4122 
L 106 4122 
L 106 4238 
L 1659 4238 
Q 2228 4238 2556 4120 
Q 2884 4003 3109 3725 
Q 3334 3447 3334 3066 
Q 3334 2547 2992 2222 
Q 2650 1897 2025 1897 
Q 1872 1897 1694 1919 
Q 1516 1941 1313 1984 
z
M 1313 2163 
Q 1478 2131 1606 2115 
Q 1734 2100 1825 2100 
Q 2150 2100 2386 2351 
Q 2622 2603 2622 3003 
Q 2622 3278 2509 3514 
Q 2397 3750 2190 3867 
Q 1984 3984 1722 3984 
Q 1563 3984 1313 3925 
L 1313 2163 
z
" id="TimesNewRomanPSMT-50" transform="scale(0.015625)"/>
       <path d="M 1822 413 
Q 1381 72 1269 19 
Q 1100 -59 909 -59 
Q 613 -59 420 144 
Q 228 347 228 678 
Q 228 888 322 1041 
Q 450 1253 767 1440 
Q 1084 1628 1822 1897 
L 1822 2009 
Q 1822 2438 1686 2597 
Q 1550 2756 1291 2756 
Q 1094 2756 978 2650 
Q 859 2544 859 2406 
L 866 2225 
Q 866 2081 792 2003 
Q 719 1925 600 1925 
Q 484 1925 411 2006 
Q 338 2088 338 2228 
Q 338 2497 613 2722 
Q 888 2947 1384 2947 
Q 1766 2947 2009 2819 
Q 2194 2722 2281 2516 
Q 2338 2381 2338 1966 
L 2338 994 
Q 2338 584 2353 492 
Q 2369 400 2405 369 
Q 2441 338 2488 338 
Q 2538 338 2575 359 
Q 2641 400 2828 588 
L 2828 413 
Q 2478 -56 2159 -56 
Q 2006 -56 1915 50 
Q 1825 156 1822 413 
z
M 1822 616 
L 1822 1706 
Q 1350 1519 1213 1441 
Q 966 1303 859 1153 
Q 753 1003 753 825 
Q 753 600 887 451 
Q 1022 303 1197 303 
Q 1434 303 1822 616 
z
" id="TimesNewRomanPSMT-61" transform="scale(0.015625)"/>
       <path d="M 38 2863 
L 1372 2863 
L 1372 2747 
L 1306 2747 
Q 1166 2747 1095 2686 
Q 1025 2625 1025 2534 
Q 1025 2413 1128 2197 
L 1825 753 
L 2466 2334 
Q 2519 2463 2519 2588 
Q 2519 2644 2497 2672 
Q 2472 2706 2419 2726 
Q 2366 2747 2231 2747 
L 2231 2863 
L 3163 2863 
L 3163 2747 
Q 3047 2734 2984 2696 
Q 2922 2659 2847 2556 
Q 2819 2513 2741 2316 
L 1575 -541 
Q 1406 -956 1132 -1168 
Q 859 -1381 606 -1381 
Q 422 -1381 303 -1275 
Q 184 -1169 184 -1031 
Q 184 -900 270 -820 
Q 356 -741 506 -741 
Q 609 -741 788 -809 
Q 913 -856 944 -856 
Q 1038 -856 1148 -759 
Q 1259 -663 1372 -384 
L 1575 113 
L 547 2272 
Q 500 2369 397 2513 
Q 319 2622 269 2659 
Q 197 2709 38 2747 
L 38 2863 
z
" id="TimesNewRomanPSMT-79" transform="scale(0.015625)"/>
       <path d="M 1184 4444 
L 1184 647 
Q 1184 378 1223 290 
Q 1263 203 1344 158 
Q 1425 113 1647 113 
L 1647 0 
L 244 0 
L 244 113 
Q 441 113 512 153 
Q 584 194 625 287 
Q 666 381 666 647 
L 666 3247 
Q 666 3731 644 3842 
Q 622 3953 573 3993 
Q 525 4034 450 4034 
Q 369 4034 244 3984 
L 191 4094 
L 1044 4444 
L 1184 4444 
z
" id="TimesNewRomanPSMT-6c" transform="scale(0.015625)"/>
       <path d="M 1600 2947 
Q 2250 2947 2644 2453 
Q 2978 2031 2978 1484 
Q 2978 1100 2793 706 
Q 2609 313 2286 112 
Q 1963 -88 1566 -88 
Q 919 -88 538 428 
Q 216 863 216 1403 
Q 216 1797 411 2186 
Q 606 2575 925 2761 
Q 1244 2947 1600 2947 
z
M 1503 2744 
Q 1338 2744 1170 2645 
Q 1003 2547 900 2300 
Q 797 2053 797 1666 
Q 797 1041 1045 587 
Q 1294 134 1700 134 
Q 2003 134 2200 384 
Q 2397 634 2397 1244 
Q 2397 2006 2069 2444 
Q 1847 2744 1503 2744 
z
" id="TimesNewRomanPSMT-6f" transform="scale(0.015625)"/>
       <path d="M 2222 322 
Q 2013 103 1813 7 
Q 1613 -88 1381 -88 
Q 913 -88 563 304 
Q 213 697 213 1313 
Q 213 1928 600 2439 
Q 988 2950 1597 2950 
Q 1975 2950 2222 2709 
L 2222 3238 
Q 2222 3728 2198 3840 
Q 2175 3953 2125 3993 
Q 2075 4034 2000 4034 
Q 1919 4034 1784 3984 
L 1744 4094 
L 2597 4444 
L 2738 4444 
L 2738 1134 
Q 2738 631 2761 520 
Q 2784 409 2836 365 
Q 2888 322 2956 322 
Q 3041 322 3181 375 
L 3216 266 
L 2366 -88 
L 2222 -88 
L 2222 322 
z
M 2222 541 
L 2222 2016 
Q 2203 2228 2109 2403 
Q 2016 2578 1861 2667 
Q 1706 2756 1559 2756 
Q 1284 2756 1069 2509 
Q 784 2184 784 1559 
Q 784 928 1059 592 
Q 1334 256 1672 256 
Q 1956 256 2222 541 
z
" id="TimesNewRomanPSMT-64" transform="scale(0.015625)"/>
       <path id="TimesNewRomanPSMT-20" transform="scale(0.015625)"/>
       <path d="M 928 4444 
Q 1059 4444 1151 4351 
Q 1244 4259 1244 4128 
Q 1244 3997 1151 3903 
Q 1059 3809 928 3809 
Q 797 3809 703 3903 
Q 609 3997 609 4128 
Q 609 4259 701 4351 
Q 794 4444 928 4444 
z
M 1188 2947 
L 1188 647 
Q 1188 378 1227 289 
Q 1266 200 1342 156 
Q 1419 113 1622 113 
L 1622 0 
L 231 0 
L 231 113 
Q 441 113 512 153 
Q 584 194 626 287 
Q 669 381 669 647 
L 669 1750 
Q 669 2216 641 2353 
Q 619 2453 572 2492 
Q 525 2531 444 2531 
Q 356 2531 231 2484 
L 188 2597 
L 1050 2947 
L 1188 2947 
z
" id="TimesNewRomanPSMT-69" transform="scale(0.015625)"/>
       <path d="M 1034 2341 
Q 1538 2947 1994 2947 
Q 2228 2947 2397 2830 
Q 2566 2713 2666 2444 
Q 2734 2256 2734 1869 
L 2734 647 
Q 2734 375 2778 278 
Q 2813 200 2889 156 
Q 2966 113 3172 113 
L 3172 0 
L 1756 0 
L 1756 113 
L 1816 113 
Q 2016 113 2095 173 
Q 2175 234 2206 353 
Q 2219 400 2219 647 
L 2219 1819 
Q 2219 2209 2117 2386 
Q 2016 2563 1775 2563 
Q 1403 2563 1034 2156 
L 1034 647 
Q 1034 356 1069 288 
Q 1113 197 1189 155 
Q 1266 113 1500 113 
L 1500 0 
L 84 0 
L 84 113 
L 147 113 
Q 366 113 442 223 
Q 519 334 519 647 
L 519 1709 
Q 519 2225 495 2337 
Q 472 2450 423 2490 
Q 375 2531 294 2531 
Q 206 2531 84 2484 
L 38 2597 
L 900 2947 
L 1034 2947 
L 1034 2341 
z
" id="TimesNewRomanPSMT-6e" transform="scale(0.015625)"/>
       <path d="M 1031 3803 
L 1031 2863 
L 1700 2863 
L 1700 2644 
L 1031 2644 
L 1031 788 
Q 1031 509 1111 412 
Q 1191 316 1316 316 
Q 1419 316 1516 380 
Q 1613 444 1666 569 
L 1788 569 
Q 1678 263 1478 108 
Q 1278 -47 1066 -47 
Q 922 -47 784 33 
Q 647 113 581 261 
Q 516 409 516 719 
L 516 2644 
L 63 2644 
L 63 2747 
Q 234 2816 414 2980 
Q 594 3144 734 3369 
Q 806 3488 934 3803 
L 1031 3803 
z
" id="TimesNewRomanPSMT-74" transform="scale(0.015625)"/>
      </defs>
      <use xlink:href="#TimesNewRomanPSMT-50"/>
      <use x="55.615234" xlink:href="#TimesNewRomanPSMT-61"/>
      <use x="100" xlink:href="#TimesNewRomanPSMT-79"/>
      <use x="150" xlink:href="#TimesNewRomanPSMT-6c"/>
      <use x="177.783203" xlink:href="#TimesNewRomanPSMT-6f"/>
      <use x="227.783203" xlink:href="#TimesNewRomanPSMT-61"/>
      <use x="272.167969" xlink:href="#TimesNewRomanPSMT-64"/>
      <use x="322.167969" xlink:href="#TimesNewRomanPSMT-20"/>
      <use x="347.167969" xlink:href="#TimesNewRomanPSMT-69"/>
      <use x="374.951172" xlink:href="#TimesNewRomanPSMT-6e"/>
      <use x="424.951172" xlink:href="#TimesNewRomanPSMT-20"/>
      <use x="449.951172" xlink:href="#TimesNewRomanPSMT-74"/>
     </g>
    </g>
   </g>
   <g id="patch_3">
    <path d="M 69.085938 129.277608 
L 69.085938 20.14375 
" style="fill:none;stroke:#000000;stroke-linecap:square;stroke-linejoin:miter;stroke-width:0.8;"/>
   </g>
   <g id="patch_4">
    <path d="M 182.867756 129.277608 
L 182.867756 20.14375 
" style="fill:none;stroke:#000000;stroke-linecap:square;stroke-linejoin:miter;stroke-width:0.8;"/>
   </g>
   <g id="patch_5">
    <path d="M 69.085938 129.277608 
L 182.867756 129.277608 
" style="fill:none;stroke:#000000;stroke-linecap:square;stroke-linejoin:miter;stroke-width:0.8;"/>
   </g>
   <g id="patch_6">
    <path d="M 69.085938 20.14375 
L 182.867756 20.14375 
" style="fill:none;stroke:#000000;stroke-linecap:square;stroke-linejoin:miter;stroke-width:0.8;"/>
   </g>
   <g id="text_7">
    <!-- NMC -->
    <g transform="translate(7.2 77.113023)scale(0.1 -0.1)">
     <defs>
      <path d="M -84 4238 
L 1066 4238 
L 3656 1059 
L 3656 3503 
Q 3656 3894 3569 3991 
Q 3453 4122 3203 4122 
L 3056 4122 
L 3056 4238 
L 4531 4238 
L 4531 4122 
L 4381 4122 
Q 4113 4122 4000 3959 
Q 3931 3859 3931 3503 
L 3931 -69 
L 3819 -69 
L 1025 3344 
L 1025 734 
Q 1025 344 1109 247 
Q 1228 116 1475 116 
L 1625 116 
L 1625 0 
L 150 0 
L 150 116 
L 297 116 
Q 569 116 681 278 
Q 750 378 750 734 
L 750 3681 
Q 566 3897 470 3965 
Q 375 4034 191 4094 
Q 100 4122 -84 4122 
L -84 4238 
z
" id="TimesNewRomanPSMT-4e" transform="scale(0.015625)"/>
      <path d="M 2619 0 
L 981 3566 
L 981 734 
Q 981 344 1066 247 
Q 1181 116 1431 116 
L 1581 116 
L 1581 0 
L 106 0 
L 106 116 
L 256 116 
Q 525 116 638 278 
Q 706 378 706 734 
L 706 3503 
Q 706 3784 644 3909 
Q 600 4000 483 4061 
Q 366 4122 106 4122 
L 106 4238 
L 1306 4238 
L 2844 922 
L 4356 4238 
L 5556 4238 
L 5556 4122 
L 5409 4122 
Q 5138 4122 5025 3959 
Q 4956 3859 4956 3503 
L 4956 734 
Q 4956 344 5044 247 
Q 5159 116 5409 116 
L 5556 116 
L 5556 0 
L 3756 0 
L 3756 116 
L 3906 116 
Q 4178 116 4288 278 
Q 4356 378 4356 734 
L 4356 3566 
L 2722 0 
L 2619 0 
z
" id="TimesNewRomanPSMT-4d" transform="scale(0.015625)"/>
      <path d="M 3853 4334 
L 3950 2894 
L 3853 2894 
Q 3659 3541 3300 3825 
Q 2941 4109 2438 4109 
Q 2016 4109 1675 3895 
Q 1334 3681 1139 3212 
Q 944 2744 944 2047 
Q 944 1472 1128 1050 
Q 1313 628 1683 403 
Q 2053 178 2528 178 
Q 2941 178 3256 354 
Q 3572 531 3950 1056 
L 4047 994 
Q 3728 428 3303 165 
Q 2878 -97 2294 -97 
Q 1241 -97 663 684 
Q 231 1266 231 2053 
Q 231 2688 515 3219 
Q 800 3750 1298 4042 
Q 1797 4334 2388 4334 
Q 2847 4334 3294 4109 
Q 3425 4041 3481 4041 
Q 3566 4041 3628 4100 
Q 3709 4184 3744 4334 
L 3853 4334 
z
" id="TimesNewRomanPSMT-43" transform="scale(0.015625)"/>
     </defs>
     <use xlink:href="#TimesNewRomanPSMT-4e"/>
     <use x="72.216797" xlink:href="#TimesNewRomanPSMT-4d"/>
     <use x="161.132812" xlink:href="#TimesNewRomanPSMT-43"/>
    </g>
   </g>
   <g id="text_8">
    <!-- 300 kW -->
    <g transform="translate(110.007315 14.14375)scale(0.1 -0.1)">
     <defs>
      <path d="M 325 3431 
Q 506 3859 782 4092 
Q 1059 4325 1472 4325 
Q 1981 4325 2253 3994 
Q 2459 3747 2459 3466 
Q 2459 3003 1878 2509 
Q 2269 2356 2469 2072 
Q 2669 1788 2669 1403 
Q 2669 853 2319 450 
Q 1863 -75 997 -75 
Q 569 -75 414 31 
Q 259 138 259 259 
Q 259 350 332 419 
Q 406 488 509 488 
Q 588 488 669 463 
Q 722 447 909 348 
Q 1097 250 1169 231 
Q 1284 197 1416 197 
Q 1734 197 1970 444 
Q 2206 691 2206 1028 
Q 2206 1275 2097 1509 
Q 2016 1684 1919 1775 
Q 1784 1900 1550 2001 
Q 1316 2103 1072 2103 
L 972 2103 
L 972 2197 
Q 1219 2228 1467 2375 
Q 1716 2522 1828 2728 
Q 1941 2934 1941 3181 
Q 1941 3503 1739 3701 
Q 1538 3900 1238 3900 
Q 753 3900 428 3381 
L 325 3431 
z
" id="TimesNewRomanPSMT-33" transform="scale(0.015625)"/>
      <path d="M 1047 4444 
L 1047 1597 
L 1775 2259 
Q 2006 2472 2044 2528 
Q 2069 2566 2069 2603 
Q 2069 2666 2017 2711 
Q 1966 2756 1847 2763 
L 1847 2863 
L 3091 2863 
L 3091 2763 
Q 2834 2756 2664 2684 
Q 2494 2613 2291 2428 
L 1556 1750 
L 2291 822 
Q 2597 438 2703 334 
Q 2853 188 2966 144 
Q 3044 113 3238 113 
L 3238 0 
L 1847 0 
L 1847 113 
Q 1966 116 2008 148 
Q 2050 181 2050 241 
Q 2050 313 1925 472 
L 1047 1594 
L 1047 644 
Q 1047 366 1086 278 
Q 1125 191 1197 153 
Q 1269 116 1509 113 
L 1509 0 
L 53 0 
L 53 113 
Q 272 113 381 166 
Q 447 200 481 272 
Q 528 375 528 628 
L 528 3234 
Q 528 3731 506 3842 
Q 484 3953 434 3995 
Q 384 4038 303 4038 
Q 238 4038 106 3984 
L 53 4094 
L 903 4444 
L 1047 4444 
z
" id="TimesNewRomanPSMT-6b" transform="scale(0.015625)"/>
      <path d="M 5991 4238 
L 5991 4122 
Q 5825 4122 5722 4062 
Q 5619 4003 5525 3841 
Q 5463 3731 5328 3319 
L 4147 -97 
L 4022 -97 
L 3056 2613 
L 2097 -97 
L 1984 -97 
L 725 3422 
Q 584 3816 547 3888 
Q 484 4006 376 4064 
Q 269 4122 84 4122 
L 84 4238 
L 1653 4238 
L 1653 4122 
L 1578 4122 
Q 1413 4122 1325 4047 
Q 1238 3972 1238 3866 
Q 1238 3756 1375 3363 
L 2209 984 
L 2913 3006 
L 2788 3363 
L 2688 3647 
Q 2622 3803 2541 3922 
Q 2500 3981 2441 4022 
Q 2363 4078 2284 4103 
Q 2225 4122 2097 4122 
L 2097 4238 
L 3747 4238 
L 3747 4122 
L 3634 4122 
Q 3459 4122 3378 4047 
Q 3297 3972 3297 3844 
Q 3297 3684 3438 3288 
L 4250 984 
L 5056 3319 
Q 5194 3706 5194 3856 
Q 5194 3928 5148 3990 
Q 5103 4053 5034 4078 
Q 4916 4122 4725 4122 
L 4725 4238 
L 5991 4238 
z
" id="TimesNewRomanPSMT-57" transform="scale(0.015625)"/>
     </defs>
     <use xlink:href="#TimesNewRomanPSMT-33"/>
     <use x="50" xlink:href="#TimesNewRomanPSMT-30"/>
     <use x="100" xlink:href="#TimesNewRomanPSMT-30"/>
     <use x="150" xlink:href="#TimesNewRomanPSMT-20"/>
     <use x="175" xlink:href="#TimesNewRomanPSMT-6b"/>
     <use x="225" xlink:href="#TimesNewRomanPSMT-57"/>
    </g>
   </g>
   <g id="PolyCollection_1">
    <path clip-path="url(#pa938037f16)" d="M 182.867756 129.277608 
L 152.883402 129.277608 
L 152.883402 120.18312 
L 152.883402 111.088632 
L 152.883402 101.994144 
L 152.883402 92.899656 
L 152.883402 83.805167 
L 152.883402 74.710679 
L 152.883402 65.616191 
L 152.883402 56.521703 
L 152.883402 47.427215 
L 152.883402 38.332726 
L 152.883402 29.238238 
L 152.883402 20.14375 
L 152.883402 11.049262 
L 182.867756 11.049262 
L 182.867756 11.049262 
L 182.867756 20.14375 
L 182.867756 29.238238 
L 182.867756 38.332726 
L 182.867756 47.427215 
L 182.867756 56.521703 
L 182.867756 65.616191 
L 182.867756 74.710679 
L 182.867756 83.805167 
L 182.867756 92.899656 
L 182.867756 101.994144 
L 182.867756 111.088632 
L 182.867756 120.18312 
L 182.867756 129.277608 
z
" style="fill:url(#h70e1777fc8);stroke:#0065bd;"/>
   </g>
   <g id="PolyCollection_2">
    <path clip-path="url(#pa938037f16)" d="M 69.085938 20.14375 
L 69.085938 24.096398 
L 80.464119 25.507972 
L 91.842301 26.919546 
L 103.220483 28.33112 
L 114.598665 29.742694 
L 125.976847 31.154268 
L 137.355028 32.565842 
L 148.73321 33.977415 
L 160.111392 35.388989 
L 171.489574 36.800563 
L 182.867756 38.212137 
L 182.867756 20.14375 
L 182.867756 20.14375 
L 171.489574 20.14375 
L 160.111392 20.14375 
L 148.73321 20.14375 
L 137.355028 20.14375 
L 125.976847 20.14375 
L 114.598665 20.14375 
L 103.220483 20.14375 
L 91.842301 20.14375 
L 80.464119 20.14375 
L 69.085938 20.14375 
z
" style="fill:url(#h7f8b81c2a4);stroke:#a2ad00;"/>
   </g>
  </g>
  <g id="axes_2">
   <g id="patch_7">
    <path d="M 205.624119 129.277608 
L 319.405937 129.277608 
L 319.405937 20.14375 
L 205.624119 20.14375 
z
" style="fill:#ffffff;"/>
   </g>
   <g id="PathCollection_9"/>
   <g id="PathCollection_10"/>
   <g id="PathCollection_11"/>
   <g id="PathCollection_12"/>
   <g id="PathCollection_13">
    <path clip-path="url(#p72b2c1ce11)" d="M 217.002301 129.277608 
L 228.380483 129.277608 
L 239.758665 129.277608 
L 251.136847 129.277608 
L 262.515028 129.277608 
L 268.696035 129.277608 
L 264.218618 120.18312 
L 262.515028 116.935456 
L 259.163573 111.088632 
L 253.315683 101.994144 
L 251.136847 101.524663 
L 250.228631 101.994144 
L 239.758665 107.072163 
L 231.725039 111.088632 
L 228.380483 112.746716 
L 217.002301 115.606837 
L 205.624119 115.446066 
L 205.624119 120.18312 
L 205.624119 129.277608 
z
" style="fill:#6f8ca1;"/>
   </g>
   <g id="PathCollection_14">
    <path clip-path="url(#p72b2c1ce11)" d="M 273.89321 129.277608 
L 285.271392 129.277608 
L 296.649574 129.277608 
L 308.027756 129.277608 
L 319.405937 129.277608 
L 319.405937 120.18312 
L 319.405937 115.678314 
L 317.031294 111.088632 
L 312.258576 101.994144 
L 308.027756 94.011117 
L 307.463746 92.899656 
L 302.934131 83.805167 
L 298.276394 74.710679 
L 296.649574 71.822873 
L 292.882041 65.616191 
L 285.271392 64.062199 
L 282.265772 65.616191 
L 273.89321 69.865614 
L 263.982416 74.710679 
L 262.515028 75.43983 
L 251.136847 75.907346 
L 239.758665 75.036955 
L 238.083669 74.710679 
L 228.380483 72.755143 
L 217.002301 73.291846 
L 217.002301 74.710679 
L 205.624119 83.805167 
L 205.624119 92.899656 
L 205.624119 101.994144 
L 205.624119 111.088632 
L 205.624119 115.446066 
L 217.002301 115.606837 
L 228.380483 112.746716 
L 231.725039 111.088632 
L 239.758665 107.072163 
L 250.228631 101.994144 
L 251.136847 101.524663 
L 253.315683 101.994144 
L 259.163573 111.088632 
L 262.515028 116.935456 
L 264.218618 120.18312 
L 268.696035 129.277608 
z
" style="fill:#4f728c;"/>
   </g>
   <g id="PathCollection_15">
    <path clip-path="url(#p72b2c1ce11)" d="M 319.405937 115.678314 
L 319.405937 111.088632 
L 319.405937 101.994144 
L 319.405937 92.899656 
L 319.405937 83.805167 
L 319.405937 74.710679 
L 319.405937 65.616191 
L 319.405937 56.521703 
L 319.405937 47.427215 
L 319.405937 38.332726 
L 319.405937 29.238238 
L 319.405937 20.14375 
L 319.405937 11.049262 
L 319.239638 11.049262 
L 316.958777 20.14375 
L 314.298496 29.238238 
L 311.06385 38.332726 
L 308.027756 39.701885 
L 296.649574 41.2478 
L 285.271392 39.983586 
L 273.89321 39.16269 
L 271.120872 38.332726 
L 262.515028 35.012382 
L 251.136847 35.240949 
L 239.758665 34.923813 
L 239.758665 38.332726 
L 228.380483 47.427215 
L 228.380483 56.521703 
L 217.002301 65.616191 
L 217.002301 73.291846 
L 228.380483 72.755143 
L 238.083669 74.710679 
L 239.758665 75.036955 
L 251.136847 75.907346 
L 262.515028 75.43983 
L 263.982416 74.710679 
L 273.89321 69.865614 
L 282.265772 65.616191 
L 285.271392 64.062199 
L 292.882041 65.616191 
L 296.649574 71.822873 
L 298.276394 74.710679 
L 302.934131 83.805167 
L 307.463746 92.899656 
L 308.027756 94.011117 
L 312.258576 101.994144 
L 317.031294 111.088632 
z
" style="fill:#2f5978;"/>
   </g>
   <g id="PathCollection_16">
    <path clip-path="url(#p72b2c1ce11)" d="M 273.89321 39.16269 
L 285.271392 39.983586 
L 296.649574 41.2478 
L 308.027756 39.701885 
L 311.06385 38.332726 
L 314.298496 29.238238 
L 316.958777 20.14375 
L 319.239638 11.049262 
L 308.027756 11.049262 
L 296.649574 11.049262 
L 285.271392 11.049262 
L 273.89321 11.049262 
L 262.515028 11.049262 
L 251.136847 11.049262 
L 239.758665 20.14375 
L 239.758665 29.238238 
L 239.758665 34.923813 
L 251.136847 35.240949 
L 262.515028 35.012382 
L 271.120872 38.332726 
z
" style="fill:#0f3f63;"/>
   </g>
   <g id="matplotlib.axis_3">
    <g id="xtick_4">
     <g id="line2d_9">
      <g>
       <use style="stroke:#000000;stroke-width:0.8;" x="228.380483" xlink:href="#m4c578ea9e7" y="129.277608"/>
      </g>
     </g>
    </g>
    <g id="xtick_5">
     <g id="line2d_10">
      <g>
       <use style="stroke:#000000;stroke-width:0.8;" x="273.89321" xlink:href="#m4c578ea9e7" y="129.277608"/>
      </g>
     </g>
    </g>
    <g id="xtick_6">
     <g id="line2d_11">
      <g>
       <use style="stroke:#000000;stroke-width:0.8;" x="319.405937" xlink:href="#m4c578ea9e7" y="129.277608"/>
      </g>
     </g>
    </g>
   </g>
   <g id="matplotlib.axis_4">
    <g id="ytick_6">
     <g id="line2d_12">
      <g>
       <use style="stroke:#000000;stroke-width:0.8;" x="205.624119" xlink:href="#m738d881ac4" y="115.635876"/>
      </g>
     </g>
    </g>
    <g id="ytick_7">
     <g id="line2d_13">
      <g>
       <use style="stroke:#000000;stroke-width:0.8;" x="205.624119" xlink:href="#m738d881ac4" y="92.899656"/>
      </g>
     </g>
    </g>
    <g id="ytick_8">
     <g id="line2d_14">
      <g>
       <use style="stroke:#000000;stroke-width:0.8;" x="205.624119" xlink:href="#m738d881ac4" y="70.163435"/>
      </g>
     </g>
    </g>
    <g id="ytick_9">
     <g id="line2d_15">
      <g>
       <use style="stroke:#000000;stroke-width:0.8;" x="205.624119" xlink:href="#m738d881ac4" y="47.427215"/>
      </g>
     </g>
    </g>
    <g id="ytick_10">
     <g id="line2d_16">
      <g>
       <use style="stroke:#000000;stroke-width:0.8;" x="205.624119" xlink:href="#m738d881ac4" y="24.690994"/>
      </g>
     </g>
    </g>
   </g>
   <g id="patch_8">
    <path d="M 205.624119 129.277608 
L 205.624119 20.14375 
" style="fill:none;stroke:#000000;stroke-linecap:square;stroke-linejoin:miter;stroke-width:0.8;"/>
   </g>
   <g id="patch_9">
    <path d="M 319.405937 129.277608 
L 319.405937 20.14375 
" style="fill:none;stroke:#000000;stroke-linecap:square;stroke-linejoin:miter;stroke-width:0.8;"/>
   </g>
   <g id="patch_10">
    <path d="M 205.624119 129.277608 
L 319.405937 129.277608 
" style="fill:none;stroke:#000000;stroke-linecap:square;stroke-linejoin:miter;stroke-width:0.8;"/>
   </g>
   <g id="patch_11">
    <path d="M 205.624119 20.14375 
L 319.405937 20.14375 
" style="fill:none;stroke:#000000;stroke-linecap:square;stroke-linejoin:miter;stroke-width:0.8;"/>
   </g>
   <g id="text_9">
    <!-- 700 kW -->
    <g transform="translate(246.545497 14.14375)scale(0.1 -0.1)">
     <defs>
      <path d="M 644 4238 
L 2916 4238 
L 2916 4119 
L 1503 -88 
L 1153 -88 
L 2419 3728 
L 1253 3728 
Q 900 3728 750 3644 
Q 488 3500 328 3200 
L 238 3234 
L 644 4238 
z
" id="TimesNewRomanPSMT-37" transform="scale(0.015625)"/>
     </defs>
     <use xlink:href="#TimesNewRomanPSMT-37"/>
     <use x="50" xlink:href="#TimesNewRomanPSMT-30"/>
     <use x="100" xlink:href="#TimesNewRomanPSMT-30"/>
     <use x="150" xlink:href="#TimesNewRomanPSMT-20"/>
     <use x="175" xlink:href="#TimesNewRomanPSMT-6b"/>
     <use x="225" xlink:href="#TimesNewRomanPSMT-57"/>
    </g>
   </g>
   <g id="PolyCollection_3">
    <path clip-path="url(#p72b2c1ce11)" d="M 319.405937 129.277608 
L 289.421584 129.277608 
L 289.421584 120.18312 
L 289.421584 111.088632 
L 289.421584 101.994144 
L 289.421584 92.899656 
L 289.421584 83.805167 
L 289.421584 74.710679 
L 289.421584 65.616191 
L 289.421584 56.521703 
L 289.421584 47.427215 
L 289.421584 38.332726 
L 289.421584 29.238238 
L 289.421584 20.14375 
L 289.421584 11.049262 
L 319.405937 11.049262 
L 319.405937 11.049262 
L 319.405937 20.14375 
L 319.405937 29.238238 
L 319.405937 38.332726 
L 319.405937 47.427215 
L 319.405937 56.521703 
L 319.405937 65.616191 
L 319.405937 74.710679 
L 319.405937 83.805167 
L 319.405937 92.899656 
L 319.405937 101.994144 
L 319.405937 111.088632 
L 319.405937 120.18312 
L 319.405937 129.277608 
z
" style="fill:url(#h70e1777fc8);stroke:#0065bd;"/>
   </g>
   <g id="PolyCollection_4">
    <path clip-path="url(#p72b2c1ce11)" d="M 205.624119 20.14375 
L 205.624119 24.096398 
L 217.002301 25.507972 
L 228.380483 26.919546 
L 239.758665 28.33112 
L 251.136847 29.742694 
L 262.515028 31.154268 
L 273.89321 32.565842 
L 285.271392 33.977415 
L 296.649574 35.388989 
L 308.027756 36.800563 
L 319.405937 38.212137 
L 319.405937 20.14375 
L 319.405937 20.14375 
L 308.027756 20.14375 
L 296.649574 20.14375 
L 285.271392 20.14375 
L 273.89321 20.14375 
L 262.515028 20.14375 
L 251.136847 20.14375 
L 239.758665 20.14375 
L 228.380483 20.14375 
L 217.002301 20.14375 
L 205.624119 20.14375 
z
" style="fill:url(#h7f8b81c2a4);stroke:#a2ad00;"/>
   </g>
  </g>
  <g id="axes_3">
   <g id="patch_12">
    <path d="M 69.085938 260.238238 
L 182.867756 260.238238 
L 182.867756 151.10438 
L 69.085938 151.10438 
z
" style="fill:#ffffff;"/>
   </g>
   <g id="PathCollection_17"/>
   <g id="PathCollection_18"/>
   <g id="PathCollection_19"/>
   <g id="PathCollection_20">
    <path clip-path="url(#p5f7c4f074f)" d="M 91.842301 260.238238 
L 103.220483 260.238238 
L 114.598665 260.238238 
L 123.170975 260.238238 
L 114.598665 253.951162 
L 109.733189 251.14375 
L 103.220483 247.138635 
L 100.057804 244.577165 
L 91.842301 251.14375 
L 80.464119 260.238238 
z
" style="fill:#8fa5b6;"/>
   </g>
   <g id="PathCollection_21">
    <path clip-path="url(#p5f7c4f074f)" d="M 114.598665 253.951162 
L 123.170975 260.238238 
L 125.976847 260.238238 
L 137.355028 260.238238 
L 148.73321 260.238238 
L 160.111392 260.238238 
L 171.489574 260.238238 
L 182.867756 260.238238 
L 182.867756 251.14375 
L 182.867756 242.049262 
L 182.867756 232.954774 
L 182.867756 223.860285 
L 182.867756 220.936835 
L 171.489574 214.771811 
L 171.474646 214.765797 
L 160.111392 208.467627 
L 155.07696 205.671309 
L 148.73321 200.4353 
L 146.915306 198.029857 
L 137.355028 205.671309 
L 125.976847 214.765797 
L 114.598665 223.860285 
L 114.598665 232.954774 
L 103.220483 242.049262 
L 100.057804 244.577165 
L 103.220483 247.138635 
L 109.733189 251.14375 
z
" style="fill:#6f8ca1;"/>
   </g>
   <g id="PathCollection_22">
    <path clip-path="url(#p5f7c4f074f)" d="M 171.489574 214.771811 
L 182.867756 220.936835 
L 182.867756 214.765797 
L 182.867756 205.671309 
L 182.867756 196.576821 
L 182.867756 187.482333 
L 182.867756 178.387844 
L 182.867756 169.293356 
L 182.867756 160.198868 
L 182.867756 151.10438 
L 182.867756 143.655005 
L 181.446777 142.009892 
L 171.489574 142.009892 
L 171.489574 151.10438 
L 171.489574 160.198868 
L 171.489574 169.293356 
L 171.489574 178.387844 
L 160.111392 187.482333 
L 148.73321 196.576821 
L 146.915306 198.029857 
L 148.73321 200.4353 
L 155.07696 205.671309 
L 160.111392 208.467627 
L 171.474646 214.765797 
z
" style="fill:#4f728c;"/>
   </g>
   <g id="PathCollection_23">
    <path clip-path="url(#p5f7c4f074f)" d="M 182.867756 143.655005 
L 182.867756 142.009892 
L 181.446777 142.009892 
z
" style="fill:#2f5978;"/>
   </g>
   <g id="PathCollection_24"/>
   <g id="matplotlib.axis_5">
    <g id="xtick_7">
     <g id="line2d_17">
      <g>
       <use style="stroke:#000000;stroke-width:0.8;" x="91.842301" xlink:href="#m4c578ea9e7" y="260.238238"/>
      </g>
     </g>
     <g id="text_10">
      <!-- 600 -->
      <g transform="translate(84.342301 274.181988)scale(0.1 -0.1)">
       <defs>
        <path d="M 2869 4325 
L 2869 4209 
Q 2456 4169 2195 4045 
Q 1934 3922 1679 3669 
Q 1425 3416 1258 3105 
Q 1091 2794 978 2366 
Q 1428 2675 1881 2675 
Q 2316 2675 2634 2325 
Q 2953 1975 2953 1425 
Q 2953 894 2631 456 
Q 2244 -75 1606 -75 
Q 1172 -75 869 213 
Q 275 772 275 1663 
Q 275 2231 503 2743 
Q 731 3256 1154 3653 
Q 1578 4050 1965 4187 
Q 2353 4325 2688 4325 
L 2869 4325 
z
M 925 2138 
Q 869 1716 869 1456 
Q 869 1156 980 804 
Q 1091 453 1309 247 
Q 1469 100 1697 100 
Q 1969 100 2183 356 
Q 2397 613 2397 1088 
Q 2397 1622 2184 2012 
Q 1972 2403 1581 2403 
Q 1463 2403 1327 2353 
Q 1191 2303 925 2138 
z
" id="TimesNewRomanPSMT-36" transform="scale(0.015625)"/>
       </defs>
       <use xlink:href="#TimesNewRomanPSMT-36"/>
       <use x="50" xlink:href="#TimesNewRomanPSMT-30"/>
       <use x="100" xlink:href="#TimesNewRomanPSMT-30"/>
      </g>
     </g>
    </g>
    <g id="xtick_8">
     <g id="line2d_18">
      <g>
       <use style="stroke:#000000;stroke-width:0.8;" x="137.355028" xlink:href="#m4c578ea9e7" y="260.238238"/>
      </g>
     </g>
     <g id="text_11">
      <!-- 800 -->
      <g transform="translate(129.855028 274.181988)scale(0.1 -0.1)">
       <defs>
        <path d="M 1228 2134 
Q 725 2547 579 2797 
Q 434 3047 434 3316 
Q 434 3728 753 4026 
Q 1072 4325 1600 4325 
Q 2113 4325 2425 4047 
Q 2738 3769 2738 3413 
Q 2738 3175 2569 2928 
Q 2400 2681 1866 2347 
Q 2416 1922 2594 1678 
Q 2831 1359 2831 1006 
Q 2831 559 2490 242 
Q 2150 -75 1597 -75 
Q 994 -75 656 303 
Q 388 606 388 966 
Q 388 1247 577 1523 
Q 766 1800 1228 2134 
z
M 1719 2469 
Q 2094 2806 2194 3001 
Q 2294 3197 2294 3444 
Q 2294 3772 2109 3958 
Q 1925 4144 1606 4144 
Q 1288 4144 1088 3959 
Q 888 3775 888 3528 
Q 888 3366 970 3203 
Q 1053 3041 1206 2894 
L 1719 2469 
z
M 1375 2016 
Q 1116 1797 991 1539 
Q 866 1281 866 981 
Q 866 578 1086 336 
Q 1306 94 1647 94 
Q 1984 94 2187 284 
Q 2391 475 2391 747 
Q 2391 972 2272 1150 
Q 2050 1481 1375 2016 
z
" id="TimesNewRomanPSMT-38" transform="scale(0.015625)"/>
       </defs>
       <use xlink:href="#TimesNewRomanPSMT-38"/>
       <use x="50" xlink:href="#TimesNewRomanPSMT-30"/>
       <use x="100" xlink:href="#TimesNewRomanPSMT-30"/>
      </g>
     </g>
    </g>
    <g id="xtick_9">
     <g id="line2d_19">
      <g>
       <use style="stroke:#000000;stroke-width:0.8;" x="182.867756" xlink:href="#m4c578ea9e7" y="260.238238"/>
      </g>
     </g>
     <g id="text_12">
      <!-- 1000 -->
      <g transform="translate(172.867756 274.181988)scale(0.1 -0.1)">
       <use xlink:href="#TimesNewRomanPSMT-31"/>
       <use x="50" xlink:href="#TimesNewRomanPSMT-30"/>
       <use x="100" xlink:href="#TimesNewRomanPSMT-30"/>
       <use x="150" xlink:href="#TimesNewRomanPSMT-30"/>
      </g>
     </g>
    </g>
    <g id="text_13">
     <!-- Battery capacity in kWh -->
     <g transform="translate(77.244815 287.264801)scale(0.1 -0.1)">
      <defs>
       <path d="M 2956 2163 
Q 3397 2069 3616 1863 
Q 3919 1575 3919 1159 
Q 3919 844 3719 555 
Q 3519 266 3170 133 
Q 2822 0 2106 0 
L 106 0 
L 106 116 
L 266 116 
Q 531 116 647 284 
Q 719 394 719 750 
L 719 3488 
Q 719 3881 628 3984 
Q 506 4122 266 4122 
L 106 4122 
L 106 4238 
L 1938 4238 
Q 2450 4238 2759 4163 
Q 3228 4050 3475 3764 
Q 3722 3478 3722 3106 
Q 3722 2788 3528 2536 
Q 3334 2284 2956 2163 
z
M 1319 2331 
Q 1434 2309 1582 2298 
Q 1731 2288 1909 2288 
Q 2366 2288 2595 2386 
Q 2825 2484 2947 2687 
Q 3069 2891 3069 3131 
Q 3069 3503 2766 3765 
Q 2463 4028 1881 4028 
Q 1569 4028 1319 3959 
L 1319 2331 
z
M 1319 306 
Q 1681 222 2034 222 
Q 2600 222 2897 476 
Q 3194 731 3194 1106 
Q 3194 1353 3059 1581 
Q 2925 1809 2622 1940 
Q 2319 2072 1872 2072 
Q 1678 2072 1540 2065 
Q 1403 2059 1319 2044 
L 1319 306 
z
" id="TimesNewRomanPSMT-42" transform="scale(0.015625)"/>
       <path d="M 681 1784 
Q 678 1147 991 784 
Q 1303 422 1725 422 
Q 2006 422 2214 576 
Q 2422 731 2563 1106 
L 2659 1044 
Q 2594 616 2278 264 
Q 1963 -88 1488 -88 
Q 972 -88 605 314 
Q 238 716 238 1394 
Q 238 2128 614 2539 
Q 991 2950 1559 2950 
Q 2041 2950 2350 2633 
Q 2659 2316 2659 1784 
L 681 1784 
z
M 681 1966 
L 2006 1966 
Q 1991 2241 1941 2353 
Q 1863 2528 1708 2628 
Q 1553 2728 1384 2728 
Q 1125 2728 920 2526 
Q 716 2325 681 1966 
z
" id="TimesNewRomanPSMT-65" transform="scale(0.015625)"/>
       <path d="M 1038 2947 
L 1038 2303 
Q 1397 2947 1775 2947 
Q 1947 2947 2059 2842 
Q 2172 2738 2172 2600 
Q 2172 2478 2090 2393 
Q 2009 2309 1897 2309 
Q 1788 2309 1652 2417 
Q 1516 2525 1450 2525 
Q 1394 2525 1328 2463 
Q 1188 2334 1038 2041 
L 1038 669 
Q 1038 431 1097 309 
Q 1138 225 1241 169 
Q 1344 113 1538 113 
L 1538 0 
L 72 0 
L 72 113 
Q 291 113 397 181 
Q 475 231 506 341 
Q 522 394 522 644 
L 522 1753 
Q 522 2253 501 2348 
Q 481 2444 426 2487 
Q 372 2531 291 2531 
Q 194 2531 72 2484 
L 41 2597 
L 906 2947 
L 1038 2947 
z
" id="TimesNewRomanPSMT-72" transform="scale(0.015625)"/>
       <path d="M 2631 1088 
Q 2516 522 2178 217 
Q 1841 -88 1431 -88 
Q 944 -88 581 321 
Q 219 731 219 1428 
Q 219 2103 620 2525 
Q 1022 2947 1584 2947 
Q 2006 2947 2278 2723 
Q 2550 2500 2550 2259 
Q 2550 2141 2473 2067 
Q 2397 1994 2259 1994 
Q 2075 1994 1981 2113 
Q 1928 2178 1911 2362 
Q 1894 2547 1784 2644 
Q 1675 2738 1481 2738 
Q 1169 2738 978 2506 
Q 725 2200 725 1697 
Q 725 1184 976 792 
Q 1228 400 1656 400 
Q 1963 400 2206 609 
Q 2378 753 2541 1131 
L 2631 1088 
z
" id="TimesNewRomanPSMT-63" transform="scale(0.015625)"/>
       <path d="M -6 2578 
L 875 2934 
L 994 2934 
L 994 2266 
Q 1216 2644 1439 2795 
Q 1663 2947 1909 2947 
Q 2341 2947 2628 2609 
Q 2981 2197 2981 1534 
Q 2981 794 2556 309 
Q 2206 -88 1675 -88 
Q 1444 -88 1275 -22 
Q 1150 25 994 166 
L 994 -706 
Q 994 -1000 1030 -1079 
Q 1066 -1159 1155 -1206 
Q 1244 -1253 1478 -1253 
L 1478 -1369 
L -22 -1369 
L -22 -1253 
L 56 -1253 
Q 228 -1256 350 -1188 
Q 409 -1153 442 -1076 
Q 475 -1000 475 -688 
L 475 2019 
Q 475 2297 450 2372 
Q 425 2447 370 2484 
Q 316 2522 222 2522 
Q 147 2522 31 2478 
L -6 2578 
z
M 994 2081 
L 994 1013 
Q 994 666 1022 556 
Q 1066 375 1236 237 
Q 1406 100 1666 100 
Q 1978 100 2172 344 
Q 2425 663 2425 1241 
Q 2425 1897 2138 2250 
Q 1938 2494 1663 2494 
Q 1513 2494 1366 2419 
Q 1253 2363 994 2081 
z
" id="TimesNewRomanPSMT-70" transform="scale(0.015625)"/>
       <path d="M 1041 4444 
L 1041 2350 
Q 1388 2731 1591 2839 
Q 1794 2947 1997 2947 
Q 2241 2947 2416 2812 
Q 2591 2678 2675 2391 
Q 2734 2191 2734 1659 
L 2734 647 
Q 2734 375 2778 275 
Q 2809 200 2884 156 
Q 2959 113 3159 113 
L 3159 0 
L 1753 0 
L 1753 113 
L 1819 113 
Q 2019 113 2097 173 
Q 2175 234 2206 353 
Q 2216 403 2216 647 
L 2216 1659 
Q 2216 2128 2167 2275 
Q 2119 2422 2012 2495 
Q 1906 2569 1756 2569 
Q 1603 2569 1437 2487 
Q 1272 2406 1041 2159 
L 1041 647 
Q 1041 353 1073 281 
Q 1106 209 1195 161 
Q 1284 113 1503 113 
L 1503 0 
L 84 0 
L 84 113 
Q 275 113 384 172 
Q 447 203 484 290 
Q 522 378 522 647 
L 522 3238 
Q 522 3728 498 3840 
Q 475 3953 426 3993 
Q 378 4034 297 4034 
Q 231 4034 84 3984 
L 41 4094 
L 897 4444 
L 1041 4444 
z
" id="TimesNewRomanPSMT-68" transform="scale(0.015625)"/>
      </defs>
      <use xlink:href="#TimesNewRomanPSMT-42"/>
      <use x="66.699219" xlink:href="#TimesNewRomanPSMT-61"/>
      <use x="111.083984" xlink:href="#TimesNewRomanPSMT-74"/>
      <use x="138.867188" xlink:href="#TimesNewRomanPSMT-74"/>
      <use x="166.650391" xlink:href="#TimesNewRomanPSMT-65"/>
      <use x="211.035156" xlink:href="#TimesNewRomanPSMT-72"/>
      <use x="244.335938" xlink:href="#TimesNewRomanPSMT-79"/>
      <use x="294.335938" xlink:href="#TimesNewRomanPSMT-20"/>
      <use x="319.335938" xlink:href="#TimesNewRomanPSMT-63"/>
      <use x="363.720703" xlink:href="#TimesNewRomanPSMT-61"/>
      <use x="408.105469" xlink:href="#TimesNewRomanPSMT-70"/>
      <use x="458.105469" xlink:href="#TimesNewRomanPSMT-61"/>
      <use x="502.490234" xlink:href="#TimesNewRomanPSMT-63"/>
      <use x="546.875" xlink:href="#TimesNewRomanPSMT-69"/>
      <use x="574.658203" xlink:href="#TimesNewRomanPSMT-74"/>
      <use x="602.441406" xlink:href="#TimesNewRomanPSMT-79"/>
      <use x="652.441406" xlink:href="#TimesNewRomanPSMT-20"/>
      <use x="677.441406" xlink:href="#TimesNewRomanPSMT-69"/>
      <use x="705.224609" xlink:href="#TimesNewRomanPSMT-6e"/>
      <use x="755.224609" xlink:href="#TimesNewRomanPSMT-20"/>
      <use x="780.224609" xlink:href="#TimesNewRomanPSMT-6b"/>
      <use x="830.224609" xlink:href="#TimesNewRomanPSMT-57"/>
      <use x="924.609375" xlink:href="#TimesNewRomanPSMT-68"/>
     </g>
    </g>
   </g>
   <g id="matplotlib.axis_6">
    <g id="ytick_11">
     <g id="line2d_20">
      <g>
       <use style="stroke:#000000;stroke-width:0.8;" x="69.085938" xlink:href="#m738d881ac4" y="246.596506"/>
      </g>
     </g>
     <g id="text_14">
      <!-- 5 -->
      <g transform="translate(57.085938 250.068381)scale(0.1 -0.1)">
       <use xlink:href="#TimesNewRomanPSMT-35"/>
      </g>
     </g>
    </g>
    <g id="ytick_12">
     <g id="line2d_21">
      <g>
       <use style="stroke:#000000;stroke-width:0.8;" x="69.085938" xlink:href="#m738d881ac4" y="223.860285"/>
      </g>
     </g>
     <g id="text_15">
      <!-- 10 -->
      <g transform="translate(52.085938 227.33216)scale(0.1 -0.1)">
       <use xlink:href="#TimesNewRomanPSMT-31"/>
       <use x="50" xlink:href="#TimesNewRomanPSMT-30"/>
      </g>
     </g>
    </g>
    <g id="ytick_13">
     <g id="line2d_22">
      <g>
       <use style="stroke:#000000;stroke-width:0.8;" x="69.085938" xlink:href="#m738d881ac4" y="201.124065"/>
      </g>
     </g>
     <g id="text_16">
      <!-- 15 -->
      <g transform="translate(52.085938 204.59594)scale(0.1 -0.1)">
       <use xlink:href="#TimesNewRomanPSMT-31"/>
       <use x="50" xlink:href="#TimesNewRomanPSMT-35"/>
      </g>
     </g>
    </g>
    <g id="ytick_14">
     <g id="line2d_23">
      <g>
       <use style="stroke:#000000;stroke-width:0.8;" x="69.085938" xlink:href="#m738d881ac4" y="178.387844"/>
      </g>
     </g>
     <g id="text_17">
      <!-- 20 -->
      <g transform="translate(52.085938 181.859719)scale(0.1 -0.1)">
       <use xlink:href="#TimesNewRomanPSMT-32"/>
       <use x="50" xlink:href="#TimesNewRomanPSMT-30"/>
      </g>
     </g>
    </g>
    <g id="ytick_15">
     <g id="line2d_24">
      <g>
       <use style="stroke:#000000;stroke-width:0.8;" x="69.085938" xlink:href="#m738d881ac4" y="155.651624"/>
      </g>
     </g>
     <g id="text_18">
      <!-- 25 -->
      <g transform="translate(52.085938 159.123499)scale(0.1 -0.1)">
       <use xlink:href="#TimesNewRomanPSMT-32"/>
       <use x="50" xlink:href="#TimesNewRomanPSMT-35"/>
      </g>
     </g>
    </g>
    <g id="text_19">
     <!-- Payload in t -->
     <g transform="translate(45.928125 229.558028)rotate(-90)scale(0.1 -0.1)">
      <use xlink:href="#TimesNewRomanPSMT-50"/>
      <use x="55.615234" xlink:href="#TimesNewRomanPSMT-61"/>
      <use x="100" xlink:href="#TimesNewRomanPSMT-79"/>
      <use x="150" xlink:href="#TimesNewRomanPSMT-6c"/>
      <use x="177.783203" xlink:href="#TimesNewRomanPSMT-6f"/>
      <use x="227.783203" xlink:href="#TimesNewRomanPSMT-61"/>
      <use x="272.167969" xlink:href="#TimesNewRomanPSMT-64"/>
      <use x="322.167969" xlink:href="#TimesNewRomanPSMT-20"/>
      <use x="347.167969" xlink:href="#TimesNewRomanPSMT-69"/>
      <use x="374.951172" xlink:href="#TimesNewRomanPSMT-6e"/>
      <use x="424.951172" xlink:href="#TimesNewRomanPSMT-20"/>
      <use x="449.951172" xlink:href="#TimesNewRomanPSMT-74"/>
     </g>
    </g>
   </g>
   <g id="patch_13">
    <path d="M 69.085938 260.238238 
L 69.085938 151.10438 
" style="fill:none;stroke:#000000;stroke-linecap:square;stroke-linejoin:miter;stroke-width:0.8;"/>
   </g>
   <g id="patch_14">
    <path d="M 182.867756 260.238238 
L 182.867756 151.10438 
" style="fill:none;stroke:#000000;stroke-linecap:square;stroke-linejoin:miter;stroke-width:0.8;"/>
   </g>
   <g id="patch_15">
    <path d="M 69.085938 260.238238 
L 182.867756 260.238238 
" style="fill:none;stroke:#000000;stroke-linecap:square;stroke-linejoin:miter;stroke-width:0.8;"/>
   </g>
   <g id="patch_16">
    <path d="M 69.085938 151.10438 
L 182.867756 151.10438 
" style="fill:none;stroke:#000000;stroke-linecap:square;stroke-linejoin:miter;stroke-width:0.8;"/>
   </g>
   <g id="text_20">
    <!-- LFP -->
    <g transform="translate(12.754687 208.073653)scale(0.1 -0.1)">
     <defs>
      <path d="M 3669 1172 
L 3772 1150 
L 3409 0 
L 128 0 
L 128 116 
L 288 116 
Q 556 116 672 291 
Q 738 391 738 753 
L 738 3488 
Q 738 3884 650 3984 
Q 528 4122 288 4122 
L 128 4122 
L 128 4238 
L 2047 4238 
L 2047 4122 
Q 1709 4125 1573 4059 
Q 1438 3994 1388 3894 
Q 1338 3794 1338 3416 
L 1338 753 
Q 1338 494 1388 397 
Q 1425 331 1503 300 
Q 1581 269 1991 269 
L 2300 269 
Q 2788 269 2984 341 
Q 3181 413 3343 595 
Q 3506 778 3669 1172 
z
" id="TimesNewRomanPSMT-4c" transform="scale(0.015625)"/>
      <path d="M 1309 4006 
L 1309 2341 
L 2081 2341 
Q 2347 2341 2470 2458 
Q 2594 2575 2634 2922 
L 2750 2922 
L 2750 1488 
L 2634 1488 
Q 2631 1734 2570 1850 
Q 2509 1966 2401 2023 
Q 2294 2081 2081 2081 
L 1309 2081 
L 1309 750 
Q 1309 428 1350 325 
Q 1381 247 1481 191 
Q 1619 116 1769 116 
L 1922 116 
L 1922 0 
L 103 0 
L 103 116 
L 253 116 
Q 516 116 634 269 
Q 709 369 709 750 
L 709 3488 
Q 709 3809 669 3913 
Q 638 3991 541 4047 
Q 406 4122 253 4122 
L 103 4122 
L 103 4238 
L 3256 4238 
L 3297 3306 
L 3188 3306 
Q 3106 3603 2998 3742 
Q 2891 3881 2733 3943 
Q 2575 4006 2244 4006 
L 1309 4006 
z
" id="TimesNewRomanPSMT-46" transform="scale(0.015625)"/>
     </defs>
     <use xlink:href="#TimesNewRomanPSMT-4c"/>
     <use x="61.083984" xlink:href="#TimesNewRomanPSMT-46"/>
     <use x="116.699219" xlink:href="#TimesNewRomanPSMT-50"/>
    </g>
   </g>
   <g id="PolyCollection_5">
    <path clip-path="url(#p5f7c4f074f)" d="M 182.867756 260.238238 
L 108.249639 260.238238 
L 108.249639 251.14375 
L 108.249639 242.049262 
L 108.249639 232.954774 
L 108.249639 223.860285 
L 108.249639 214.765797 
L 108.249639 205.671309 
L 108.249639 196.576821 
L 108.249639 187.482333 
L 108.249639 178.387844 
L 108.249639 169.293356 
L 108.249639 160.198868 
L 108.249639 151.10438 
L 108.249639 142.009892 
L 182.867756 142.009892 
L 182.867756 142.009892 
L 182.867756 151.10438 
L 182.867756 160.198868 
L 182.867756 169.293356 
L 182.867756 178.387844 
L 182.867756 187.482333 
L 182.867756 196.576821 
L 182.867756 205.671309 
L 182.867756 214.765797 
L 182.867756 223.860285 
L 182.867756 232.954774 
L 182.867756 242.049262 
L 182.867756 251.14375 
L 182.867756 260.238238 
z
" style="fill:url(#h70e1777fc8);stroke:#0065bd;"/>
   </g>
   <g id="PolyCollection_6">
    <path clip-path="url(#p5f7c4f074f)" d="M 69.085938 151.10438 
L 69.085938 159.136088 
L 80.464119 160.955568 
L 91.842301 162.775048 
L 103.220483 164.594528 
L 114.598665 166.414008 
L 125.976847 168.233487 
L 137.355028 170.052967 
L 148.73321 171.872447 
L 160.111392 173.691927 
L 171.489574 175.511407 
L 182.867756 177.330887 
L 182.867756 151.10438 
L 182.867756 151.10438 
L 171.489574 151.10438 
L 160.111392 151.10438 
L 148.73321 151.10438 
L 137.355028 151.10438 
L 125.976847 151.10438 
L 114.598665 151.10438 
L 103.220483 151.10438 
L 91.842301 151.10438 
L 80.464119 151.10438 
L 69.085938 151.10438 
z
" style="fill:url(#h7f8b81c2a4);stroke:#a2ad00;"/>
   </g>
  </g>
  <g id="axes_4">
   <g id="patch_17">
    <path d="M 205.624119 260.238238 
L 319.405937 260.238238 
L 319.405937 151.10438 
L 205.624119 151.10438 
z
" style="fill:#ffffff;"/>
   </g>
   <g id="PathCollection_25"/>
   <g id="PathCollection_26"/>
   <g id="PathCollection_27"/>
   <g id="PathCollection_28">
    <path clip-path="url(#p90c86daee4)" d="M 239.758665 260.238238 
L 251.136847 260.238238 
L 260.038804 260.238238 
L 253.509832 251.14375 
L 251.136847 247.977592 
L 250.368194 251.14375 
L 239.758665 256.781111 
L 233.782019 260.238238 
z
" style="fill:#8fa5b6;"/>
   </g>
   <g id="PathCollection_29">
    <path clip-path="url(#p90c86daee4)" d="M 217.002301 260.238238 
L 228.380483 260.238238 
L 233.782019 260.238238 
L 239.758665 256.781111 
L 250.368194 251.14375 
L 251.136847 247.977592 
L 253.509832 251.14375 
L 260.038804 260.238238 
L 262.515028 260.238238 
L 273.89321 260.238238 
L 285.271392 260.238238 
L 296.649574 260.238238 
L 308.027756 260.238238 
L 319.405937 260.238238 
L 319.405937 251.14375 
L 319.405937 242.049262 
L 319.405937 232.954774 
L 319.405937 231.153985 
L 314.483946 223.860285 
L 308.239618 214.765797 
L 308.027756 214.473389 
L 301.505189 205.671309 
L 296.649574 204.908206 
L 295.273306 205.671309 
L 285.271392 211.199184 
L 278.714666 214.765797 
L 273.89321 217.417374 
L 262.791018 223.860285 
L 262.515028 224.456039 
L 258.729691 223.860285 
L 251.136847 222.650491 
L 239.758665 222.892862 
L 228.380483 222.699432 
L 217.002301 220.563952 
L 205.624119 218.409782 
L 205.624119 223.860285 
L 205.624119 232.954774 
L 205.624119 242.049262 
L 205.624119 251.14375 
L 205.624119 260.238238 
z
" style="fill:#6f8ca1;"/>
   </g>
   <g id="PathCollection_30">
    <path clip-path="url(#p90c86daee4)" d="M 262.515028 224.456039 
L 262.791018 223.860285 
L 273.89321 217.417374 
L 278.714666 214.765797 
L 285.271392 211.199184 
L 295.273306 205.671309 
L 296.649574 204.908206 
L 301.505189 205.671309 
L 308.027756 214.473389 
L 308.239618 214.765797 
L 314.483946 223.860285 
L 319.405937 231.153985 
L 319.405937 223.860285 
L 319.405937 214.765797 
L 319.405937 205.671309 
L 319.405937 196.576821 
L 319.405937 187.482333 
L 319.405938 179.453252 
L 308.027756 181.80232 
L 296.649574 181.806568 
L 285.271392 181.750788 
L 273.89321 179.688696 
L 262.515028 179.686677 
L 254.131648 178.387844 
L 251.136847 177.902458 
L 239.758665 177.381878 
L 231.517963 175.880082 
L 228.380483 178.387844 
L 217.002301 187.482333 
L 217.002301 196.576821 
L 217.002301 205.671309 
L 205.624119 214.765797 
L 205.624119 218.409782 
L 217.002301 220.563952 
L 228.380483 222.699432 
L 239.758665 222.892862 
L 251.136847 222.650491 
L 258.729691 223.860285 
z
" style="fill:#4f728c;"/>
   </g>
   <g id="PathCollection_31">
    <path clip-path="url(#p90c86daee4)" d="M 262.515028 179.686677 
L 273.89321 179.688696 
L 285.271392 181.750788 
L 296.649574 181.806568 
L 308.027756 181.80232 
L 319.405938 179.453252 
L 319.405937 178.387844 
L 319.405937 169.293356 
L 319.405937 160.198868 
L 319.405937 151.10438 
L 319.405937 142.009892 
L 308.027756 142.009892 
L 296.649574 142.009892 
L 285.271392 142.009892 
L 273.89321 142.009892 
L 262.515028 142.009892 
L 251.136847 142.009892 
L 239.758665 142.009892 
L 239.758665 151.10438 
L 239.758665 160.198868 
L 239.758665 169.293356 
L 231.517963 175.880082 
L 239.758665 177.381878 
L 251.136847 177.902458 
L 254.131648 178.387844 
z
" style="fill:#2f5978;"/>
   </g>
   <g id="PathCollection_32"/>
   <g id="matplotlib.axis_7">
    <g id="xtick_10">
     <g id="line2d_25">
      <g>
       <use style="stroke:#000000;stroke-width:0.8;" x="228.380483" xlink:href="#m4c578ea9e7" y="260.238238"/>
      </g>
     </g>
     <g id="text_21">
      <!-- 600 -->
      <g transform="translate(220.880483 274.181988)scale(0.1 -0.1)">
       <use xlink:href="#TimesNewRomanPSMT-36"/>
       <use x="50" xlink:href="#TimesNewRomanPSMT-30"/>
       <use x="100" xlink:href="#TimesNewRomanPSMT-30"/>
      </g>
     </g>
    </g>
    <g id="xtick_11">
     <g id="line2d_26">
      <g>
       <use style="stroke:#000000;stroke-width:0.8;" x="273.89321" xlink:href="#m4c578ea9e7" y="260.238238"/>
      </g>
     </g>
     <g id="text_22">
      <!-- 800 -->
      <g transform="translate(266.39321 274.181988)scale(0.1 -0.1)">
       <use xlink:href="#TimesNewRomanPSMT-38"/>
       <use x="50" xlink:href="#TimesNewRomanPSMT-30"/>
       <use x="100" xlink:href="#TimesNewRomanPSMT-30"/>
      </g>
     </g>
    </g>
    <g id="xtick_12">
     <g id="line2d_27">
      <g>
       <use style="stroke:#000000;stroke-width:0.8;" x="319.405937" xlink:href="#m4c578ea9e7" y="260.238238"/>
      </g>
     </g>
     <g id="text_23">
      <!-- 1000 -->
      <g transform="translate(309.405937 274.181988)scale(0.1 -0.1)">
       <use xlink:href="#TimesNewRomanPSMT-31"/>
       <use x="50" xlink:href="#TimesNewRomanPSMT-30"/>
       <use x="100" xlink:href="#TimesNewRomanPSMT-30"/>
       <use x="150" xlink:href="#TimesNewRomanPSMT-30"/>
      </g>
     </g>
    </g>
    <g id="text_24">
     <!-- Battery capacity in kWh -->
     <g transform="translate(213.782997 287.264801)scale(0.1 -0.1)">
      <use xlink:href="#TimesNewRomanPSMT-42"/>
      <use x="66.699219" xlink:href="#TimesNewRomanPSMT-61"/>
      <use x="111.083984" xlink:href="#TimesNewRomanPSMT-74"/>
      <use x="138.867188" xlink:href="#TimesNewRomanPSMT-74"/>
      <use x="166.650391" xlink:href="#TimesNewRomanPSMT-65"/>
      <use x="211.035156" xlink:href="#TimesNewRomanPSMT-72"/>
      <use x="244.335938" xlink:href="#TimesNewRomanPSMT-79"/>
      <use x="294.335938" xlink:href="#TimesNewRomanPSMT-20"/>
      <use x="319.335938" xlink:href="#TimesNewRomanPSMT-63"/>
      <use x="363.720703" xlink:href="#TimesNewRomanPSMT-61"/>
      <use x="408.105469" xlink:href="#TimesNewRomanPSMT-70"/>
      <use x="458.105469" xlink:href="#TimesNewRomanPSMT-61"/>
      <use x="502.490234" xlink:href="#TimesNewRomanPSMT-63"/>
      <use x="546.875" xlink:href="#TimesNewRomanPSMT-69"/>
      <use x="574.658203" xlink:href="#TimesNewRomanPSMT-74"/>
      <use x="602.441406" xlink:href="#TimesNewRomanPSMT-79"/>
      <use x="652.441406" xlink:href="#TimesNewRomanPSMT-20"/>
      <use x="677.441406" xlink:href="#TimesNewRomanPSMT-69"/>
      <use x="705.224609" xlink:href="#TimesNewRomanPSMT-6e"/>
      <use x="755.224609" xlink:href="#TimesNewRomanPSMT-20"/>
      <use x="780.224609" xlink:href="#TimesNewRomanPSMT-6b"/>
      <use x="830.224609" xlink:href="#TimesNewRomanPSMT-57"/>
      <use x="924.609375" xlink:href="#TimesNewRomanPSMT-68"/>
     </g>
    </g>
   </g>
   <g id="matplotlib.axis_8">
    <g id="ytick_16">
     <g id="line2d_28">
      <g>
       <use style="stroke:#000000;stroke-width:0.8;" x="205.624119" xlink:href="#m738d881ac4" y="246.596506"/>
      </g>
     </g>
    </g>
    <g id="ytick_17">
     <g id="line2d_29">
      <g>
       <use style="stroke:#000000;stroke-width:0.8;" x="205.624119" xlink:href="#m738d881ac4" y="223.860285"/>
      </g>
     </g>
    </g>
    <g id="ytick_18">
     <g id="line2d_30">
      <g>
       <use style="stroke:#000000;stroke-width:0.8;" x="205.624119" xlink:href="#m738d881ac4" y="201.124065"/>
      </g>
     </g>
    </g>
    <g id="ytick_19">
     <g id="line2d_31">
      <g>
       <use style="stroke:#000000;stroke-width:0.8;" x="205.624119" xlink:href="#m738d881ac4" y="178.387844"/>
      </g>
     </g>
    </g>
    <g id="ytick_20">
     <g id="line2d_32">
      <g>
       <use style="stroke:#000000;stroke-width:0.8;" x="205.624119" xlink:href="#m738d881ac4" y="155.651624"/>
      </g>
     </g>
    </g>
   </g>
   <g id="patch_18">
    <path d="M 205.624119 260.238238 
L 205.624119 151.10438 
" style="fill:none;stroke:#000000;stroke-linecap:square;stroke-linejoin:miter;stroke-width:0.8;"/>
   </g>
   <g id="patch_19">
    <path d="M 319.405937 260.238238 
L 319.405937 151.10438 
" style="fill:none;stroke:#000000;stroke-linecap:square;stroke-linejoin:miter;stroke-width:0.8;"/>
   </g>
   <g id="patch_20">
    <path d="M 205.624119 260.238238 
L 319.405937 260.238238 
" style="fill:none;stroke:#000000;stroke-linecap:square;stroke-linejoin:miter;stroke-width:0.8;"/>
   </g>
   <g id="patch_21">
    <path d="M 205.624119 151.10438 
L 319.405937 151.10438 
" style="fill:none;stroke:#000000;stroke-linecap:square;stroke-linejoin:miter;stroke-width:0.8;"/>
   </g>
   <g id="PolyCollection_7">
    <path clip-path="url(#p90c86daee4)" d="M 319.405937 260.238238 
L 244.787821 260.238238 
L 244.787821 251.14375 
L 244.787821 242.049262 
L 244.787821 232.954774 
L 244.787821 223.860285 
L 244.787821 214.765797 
L 244.787821 205.671309 
L 244.787821 196.576821 
L 244.787821 187.482333 
L 244.787821 178.387844 
L 244.787821 169.293356 
L 244.787821 160.198868 
L 244.787821 151.10438 
L 244.787821 142.009892 
L 319.405937 142.009892 
L 319.405937 142.009892 
L 319.405937 151.10438 
L 319.405937 160.198868 
L 319.405937 169.293356 
L 319.405937 178.387844 
L 319.405937 187.482333 
L 319.405937 196.576821 
L 319.405937 205.671309 
L 319.405937 214.765797 
L 319.405937 223.860285 
L 319.405937 232.954774 
L 319.405937 242.049262 
L 319.405937 251.14375 
L 319.405937 260.238238 
z
" style="fill:url(#h70e1777fc8);stroke:#0065bd;"/>
   </g>
   <g id="PolyCollection_8">
    <path clip-path="url(#p90c86daee4)" d="M 205.624119 151.10438 
L 205.624119 159.136088 
L 217.002301 160.955568 
L 228.380483 162.775048 
L 239.758665 164.594528 
L 251.136847 166.414008 
L 262.515028 168.233487 
L 273.89321 170.052967 
L 285.271392 171.872447 
L 296.649574 173.691927 
L 308.027756 175.511407 
L 319.405937 177.330887 
L 319.405937 151.10438 
L 319.405937 151.10438 
L 308.027756 151.10438 
L 296.649574 151.10438 
L 285.271392 151.10438 
L 273.89321 151.10438 
L 262.515028 151.10438 
L 251.136847 151.10438 
L 239.758665 151.10438 
L 228.380483 151.10438 
L 217.002301 151.10438 
L 205.624119 151.10438 
z
" style="fill:url(#h7f8b81c2a4);stroke:#a2ad00;"/>
   </g>
   <g id="text_25">
    <!-- Exceeding Veh. Package -->
    <g transform="translate(287.547028 257.509892)rotate(-90)scale(0.0833 -0.0833)">
     <defs>
      <path d="M 1338 4006 
L 1338 2331 
L 2269 2331 
Q 2631 2331 2753 2441 
Q 2916 2584 2934 2947 
L 3050 2947 
L 3050 1472 
L 2934 1472 
Q 2891 1781 2847 1869 
Q 2791 1978 2662 2040 
Q 2534 2103 2269 2103 
L 1338 2103 
L 1338 706 
Q 1338 425 1363 364 
Q 1388 303 1450 267 
Q 1513 231 1688 231 
L 2406 231 
Q 2766 231 2928 281 
Q 3091 331 3241 478 
Q 3434 672 3638 1063 
L 3763 1063 
L 3397 0 
L 131 0 
L 131 116 
L 281 116 
Q 431 116 566 188 
Q 666 238 702 338 
Q 738 438 738 747 
L 738 3500 
Q 738 3903 656 3997 
Q 544 4122 281 4122 
L 131 4122 
L 131 4238 
L 3397 4238 
L 3444 3309 
L 3322 3309 
Q 3256 3644 3176 3769 
Q 3097 3894 2941 3959 
Q 2816 4006 2500 4006 
L 1338 4006 
z
" id="TimesNewRomanPSMT-45" transform="scale(0.015625)"/>
      <path d="M 84 2863 
L 1431 2863 
L 1431 2747 
Q 1303 2747 1251 2703 
Q 1200 2659 1200 2588 
Q 1200 2513 1309 2356 
Q 1344 2306 1413 2200 
L 1616 1875 
L 1850 2200 
Q 2075 2509 2075 2591 
Q 2075 2656 2022 2701 
Q 1969 2747 1850 2747 
L 1850 2863 
L 2819 2863 
L 2819 2747 
Q 2666 2738 2553 2663 
Q 2400 2556 2134 2200 
L 1744 1678 
L 2456 653 
Q 2719 275 2831 198 
Q 2944 122 3122 113 
L 3122 0 
L 1772 0 
L 1772 113 
Q 1913 113 1991 175 
Q 2050 219 2050 291 
Q 2050 363 1850 653 
L 1431 1266 
L 972 653 
Q 759 369 759 316 
Q 759 241 829 180 
Q 900 119 1041 113 
L 1041 0 
L 106 0 
L 106 113 
Q 219 128 303 191 
Q 422 281 703 653 
L 1303 1450 
L 759 2238 
Q 528 2575 401 2661 
Q 275 2747 84 2747 
L 84 2863 
z
" id="TimesNewRomanPSMT-78" transform="scale(0.015625)"/>
      <path d="M 966 1044 
Q 703 1172 562 1401 
Q 422 1631 422 1909 
Q 422 2334 742 2640 
Q 1063 2947 1563 2947 
Q 1972 2947 2272 2747 
L 2878 2747 
Q 3013 2747 3034 2739 
Q 3056 2731 3066 2713 
Q 3084 2684 3084 2613 
Q 3084 2531 3069 2500 
Q 3059 2484 3036 2475 
Q 3013 2466 2878 2466 
L 2506 2466 
Q 2681 2241 2681 1891 
Q 2681 1491 2375 1206 
Q 2069 922 1553 922 
Q 1341 922 1119 984 
Q 981 866 932 777 
Q 884 688 884 625 
Q 884 572 936 522 
Q 988 472 1138 450 
Q 1225 438 1575 428 
Q 2219 413 2409 384 
Q 2700 344 2873 169 
Q 3047 -6 3047 -263 
Q 3047 -616 2716 -925 
Q 2228 -1381 1444 -1381 
Q 841 -1381 425 -1109 
Q 191 -953 191 -784 
Q 191 -709 225 -634 
Q 278 -519 444 -313 
Q 466 -284 763 25 
Q 600 122 533 198 
Q 466 275 466 372 
Q 466 481 555 628 
Q 644 775 966 1044 
z
M 1509 2797 
Q 1278 2797 1122 2612 
Q 966 2428 966 2047 
Q 966 1553 1178 1281 
Q 1341 1075 1591 1075 
Q 1828 1075 1981 1253 
Q 2134 1431 2134 1813 
Q 2134 2309 1919 2591 
Q 1759 2797 1509 2797 
z
M 934 0 
Q 788 -159 713 -296 
Q 638 -434 638 -550 
Q 638 -700 819 -813 
Q 1131 -1006 1722 -1006 
Q 2284 -1006 2551 -807 
Q 2819 -609 2819 -384 
Q 2819 -222 2659 -153 
Q 2497 -84 2016 -72 
Q 1313 -53 934 0 
z
" id="TimesNewRomanPSMT-67" transform="scale(0.015625)"/>
      <path d="M 4544 4238 
L 4544 4122 
Q 4319 4081 4203 3978 
Q 4038 3825 3909 3509 
L 2431 -97 
L 2316 -97 
L 728 3556 
Q 606 3838 556 3900 
Q 478 3997 364 4051 
Q 250 4106 56 4122 
L 56 4238 
L 1788 4238 
L 1788 4122 
Q 1494 4094 1406 4022 
Q 1319 3950 1319 3838 
Q 1319 3681 1463 3350 
L 2541 866 
L 3541 3319 
Q 3688 3681 3688 3822 
Q 3688 3913 3597 3995 
Q 3506 4078 3291 4113 
Q 3275 4116 3238 4122 
L 3238 4238 
L 4544 4238 
z
" id="TimesNewRomanPSMT-56" transform="scale(0.015625)"/>
      <path d="M 800 606 
Q 947 606 1047 504 
Q 1147 403 1147 259 
Q 1147 116 1045 14 
Q 944 -88 800 -88 
Q 656 -88 554 14 
Q 453 116 453 259 
Q 453 406 554 506 
Q 656 606 800 606 
z
" id="TimesNewRomanPSMT-2e" transform="scale(0.015625)"/>
     </defs>
     <use xlink:href="#TimesNewRomanPSMT-45"/>
     <use x="61.083984" xlink:href="#TimesNewRomanPSMT-78"/>
     <use x="111.083984" xlink:href="#TimesNewRomanPSMT-63"/>
     <use x="155.46875" xlink:href="#TimesNewRomanPSMT-65"/>
     <use x="199.853516" xlink:href="#TimesNewRomanPSMT-65"/>
     <use x="244.238281" xlink:href="#TimesNewRomanPSMT-64"/>
     <use x="294.238281" xlink:href="#TimesNewRomanPSMT-69"/>
     <use x="322.021484" xlink:href="#TimesNewRomanPSMT-6e"/>
     <use x="372.021484" xlink:href="#TimesNewRomanPSMT-67"/>
     <use x="422.021484" xlink:href="#TimesNewRomanPSMT-20"/>
     <use x="445.271484" xlink:href="#TimesNewRomanPSMT-56"/>
     <use x="506.363281" xlink:href="#TimesNewRomanPSMT-65"/>
     <use x="550.748047" xlink:href="#TimesNewRomanPSMT-68"/>
     <use x="600.748047" xlink:href="#TimesNewRomanPSMT-2e"/>
     <use x="625.748047" xlink:href="#TimesNewRomanPSMT-20"/>
     <use x="650.748047" xlink:href="#TimesNewRomanPSMT-50"/>
     <use x="706.363281" xlink:href="#TimesNewRomanPSMT-61"/>
     <use x="750.748047" xlink:href="#TimesNewRomanPSMT-63"/>
     <use x="795.132812" xlink:href="#TimesNewRomanPSMT-6b"/>
     <use x="845.132812" xlink:href="#TimesNewRomanPSMT-61"/>
     <use x="889.517578" xlink:href="#TimesNewRomanPSMT-67"/>
     <use x="939.517578" xlink:href="#TimesNewRomanPSMT-65"/>
    </g>
   </g>
   <g id="text_26">
    <!-- Exceeding GVW -->
    <g transform="translate(257.963756 160.198868)scale(0.0833 -0.0833)">
     <defs>
      <path d="M 3928 4334 
L 4038 2997 
L 3928 2997 
Q 3763 3497 3500 3750 
Q 3122 4116 2528 4116 
Q 1719 4116 1297 3475 
Q 944 2934 944 2188 
Q 944 1581 1178 1081 
Q 1413 581 1792 348 
Q 2172 116 2572 116 
Q 2806 116 3025 175 
Q 3244 234 3447 350 
L 3447 1575 
Q 3447 1894 3398 1992 
Q 3350 2091 3248 2142 
Q 3147 2194 2891 2194 
L 2891 2313 
L 4531 2313 
L 4531 2194 
L 4453 2194 
Q 4209 2194 4119 2031 
Q 4056 1916 4056 1575 
L 4056 278 
Q 3697 84 3347 -6 
Q 2997 -97 2569 -97 
Q 1341 -97 703 691 
Q 225 1281 225 2053 
Q 225 2613 494 3125 
Q 813 3734 1369 4063 
Q 1834 4334 2469 4334 
Q 2700 4334 2889 4296 
Q 3078 4259 3425 4131 
Q 3600 4066 3659 4066 
Q 3719 4066 3761 4120 
Q 3803 4175 3813 4334 
L 3928 4334 
z
" id="TimesNewRomanPSMT-47" transform="scale(0.015625)"/>
     </defs>
     <use xlink:href="#TimesNewRomanPSMT-45"/>
     <use x="61.083984" xlink:href="#TimesNewRomanPSMT-78"/>
     <use x="111.083984" xlink:href="#TimesNewRomanPSMT-63"/>
     <use x="155.46875" xlink:href="#TimesNewRomanPSMT-65"/>
     <use x="199.853516" xlink:href="#TimesNewRomanPSMT-65"/>
     <use x="244.238281" xlink:href="#TimesNewRomanPSMT-64"/>
     <use x="294.238281" xlink:href="#TimesNewRomanPSMT-69"/>
     <use x="322.021484" xlink:href="#TimesNewRomanPSMT-6e"/>
     <use x="372.021484" xlink:href="#TimesNewRomanPSMT-67"/>
     <use x="422.021484" xlink:href="#TimesNewRomanPSMT-20"/>
     <use x="447.021484" xlink:href="#TimesNewRomanPSMT-47"/>
     <use x="519.238281" xlink:href="#TimesNewRomanPSMT-56"/>
     <use x="591.455078" xlink:href="#TimesNewRomanPSMT-57"/>
    </g>
   </g>
  </g>
  <g id="axes_5">
   <g id="patch_22">
    <path d="M 329.485938 260.238238 
L 336.205938 260.238238 
L 336.205938 20.14375 
L 329.485938 20.14375 
z
" style="fill:#ffffff;"/>
   </g>
   <g id="patch_23">
    <path clip-path="url(#p998b4416f7)" d="M 329.485938 260.238238 
L 329.485938 230.226427 
L 329.485938 50.155561 
L 329.485938 20.14375 
L 336.205938 20.14375 
L 336.205938 50.155561 
L 336.205938 230.226427 
L 336.205938 260.238238 
L 336.205938 260.238238 
z
" style="fill:#ffffff;stroke:#ffffff;stroke-linejoin:miter;stroke-width:0.01;"/>
   </g>
   <g id="patch_24">
    <path clip-path="url(#p998b4416f7)" d="M 329.485938 260.238238 
L 329.485938 230.226427 
L 329.485938 50.155561 
L 329.485938 20.14375 
L 336.205938 20.14375 
L 336.205938 50.155561 
L 336.205938 230.226427 
L 336.205938 260.238238 
L 336.205938 260.238238 
z
" style="fill:#ffffff;stroke:#ffffff;stroke-linejoin:miter;stroke-width:0.01;"/>
   </g>
   <g id="QuadMesh_1">
    <path clip-path="url(#p998b4416f7)" d="M 329.485938 260.238238 
L 336.205938 260.238238 
L 336.205938 230.226427 
L 329.485938 230.226427 
L 329.485938 260.238238 
" style="fill:#eff2f5;"/>
    <path clip-path="url(#p998b4416f7)" d="M 329.485938 230.226427 
L 336.205938 230.226427 
L 336.205938 200.214616 
L 329.485938 200.214616 
L 329.485938 230.226427 
" style="fill:#cfd9e0;"/>
    <path clip-path="url(#p998b4416f7)" d="M 329.485938 200.214616 
L 336.205938 200.214616 
L 336.205938 170.202805 
L 329.485938 170.202805 
L 329.485938 200.214616 
" style="fill:#afbfcb;"/>
    <path clip-path="url(#p998b4416f7)" d="M 329.485938 170.202805 
L 336.205938 170.202805 
L 336.205938 140.190994 
L 329.485938 140.190994 
L 329.485938 170.202805 
" style="fill:#8fa5b6;"/>
    <path clip-path="url(#p998b4416f7)" d="M 329.485938 140.190994 
L 336.205938 140.190994 
L 336.205938 110.179183 
L 329.485938 110.179183 
L 329.485938 140.190994 
" style="fill:#6f8ca1;"/>
    <path clip-path="url(#p998b4416f7)" d="M 329.485938 110.179183 
L 336.205938 110.179183 
L 336.205938 80.167372 
L 329.485938 80.167372 
L 329.485938 110.179183 
" style="fill:#4f728c;"/>
    <path clip-path="url(#p998b4416f7)" d="M 329.485938 80.167372 
L 336.205938 80.167372 
L 336.205938 50.155561 
L 329.485938 50.155561 
L 329.485938 80.167372 
" style="fill:#2f5978;"/>
    <path clip-path="url(#p998b4416f7)" d="M 329.485938 50.155561 
L 336.205938 50.155561 
L 336.205938 20.14375 
L 329.485938 20.14375 
L 329.485938 50.155561 
" style="fill:#0f3f63;"/>
   </g>
   <g id="QuadMesh_2">
    <path clip-path="url(#p998b4416f7)" d="M 329.485938 260.238238 
L 336.205938 260.238238 
L 336.205938 230.226427 
L 329.485938 230.226427 
L 329.485938 260.238238 
" style="fill:#eff2f5;"/>
    <path clip-path="url(#p998b4416f7)" d="M 329.485938 230.226427 
L 336.205938 230.226427 
L 336.205938 200.214616 
L 329.485938 200.214616 
L 329.485938 230.226427 
" style="fill:#cfd9e0;"/>
    <path clip-path="url(#p998b4416f7)" d="M 329.485938 200.214616 
L 336.205938 200.214616 
L 336.205938 170.202805 
L 329.485938 170.202805 
L 329.485938 200.214616 
" style="fill:#afbfcb;"/>
    <path clip-path="url(#p998b4416f7)" d="M 329.485938 170.202805 
L 336.205938 170.202805 
L 336.205938 140.190994 
L 329.485938 140.190994 
L 329.485938 170.202805 
" style="fill:#8fa5b6;"/>
    <path clip-path="url(#p998b4416f7)" d="M 329.485938 140.190994 
L 336.205938 140.190994 
L 336.205938 110.179183 
L 329.485938 110.179183 
L 329.485938 140.190994 
" style="fill:#6f8ca1;"/>
    <path clip-path="url(#p998b4416f7)" d="M 329.485938 110.179183 
L 336.205938 110.179183 
L 336.205938 80.167372 
L 329.485938 80.167372 
L 329.485938 110.179183 
" style="fill:#4f728c;"/>
    <path clip-path="url(#p998b4416f7)" d="M 329.485938 80.167372 
L 336.205938 80.167372 
L 336.205938 50.155561 
L 329.485938 50.155561 
L 329.485938 80.167372 
" style="fill:#2f5978;"/>
    <path clip-path="url(#p998b4416f7)" d="M 329.485938 50.155561 
L 336.205938 50.155561 
L 336.205938 20.14375 
L 329.485938 20.14375 
L 329.485938 50.155561 
" style="fill:#0f3f63;"/>
   </g>
   <g id="matplotlib.axis_9"/>
   <g id="matplotlib.axis_10">
    <g id="ytick_21">
     <g id="line2d_33">
      <defs>
       <path d="M 0 0 
L 3.5 0 
" id="m0678a54b70" style="stroke:#000000;stroke-width:0.8;"/>
      </defs>
      <g>
       <use style="stroke:#000000;stroke-width:0.8;" x="336.205938" xlink:href="#m0678a54b70" y="260.238238"/>
      </g>
     </g>
     <g id="text_27">
      <!-- 0.00 -->
      <g transform="translate(343.205938 263.710113)scale(0.1 -0.1)">
       <use xlink:href="#TimesNewRomanPSMT-30"/>
       <use x="50" xlink:href="#TimesNewRomanPSMT-2e"/>
       <use x="75" xlink:href="#TimesNewRomanPSMT-30"/>
       <use x="125" xlink:href="#TimesNewRomanPSMT-30"/>
      </g>
     </g>
    </g>
    <g id="ytick_22">
     <g id="line2d_34">
      <g>
       <use style="stroke:#000000;stroke-width:0.8;" x="336.205938" xlink:href="#m0678a54b70" y="230.226427"/>
      </g>
     </g>
     <g id="text_28">
      <!-- 0.10 -->
      <g transform="translate(343.205938 233.698302)scale(0.1 -0.1)">
       <use xlink:href="#TimesNewRomanPSMT-30"/>
       <use x="50" xlink:href="#TimesNewRomanPSMT-2e"/>
       <use x="75" xlink:href="#TimesNewRomanPSMT-31"/>
       <use x="125" xlink:href="#TimesNewRomanPSMT-30"/>
      </g>
     </g>
    </g>
    <g id="ytick_23">
     <g id="line2d_35">
      <g>
       <use style="stroke:#000000;stroke-width:0.8;" x="336.205938" xlink:href="#m0678a54b70" y="200.214616"/>
      </g>
     </g>
     <g id="text_29">
      <!-- 0.20 -->
      <g transform="translate(343.205938 203.686491)scale(0.1 -0.1)">
       <use xlink:href="#TimesNewRomanPSMT-30"/>
       <use x="50" xlink:href="#TimesNewRomanPSMT-2e"/>
       <use x="75" xlink:href="#TimesNewRomanPSMT-32"/>
       <use x="125" xlink:href="#TimesNewRomanPSMT-30"/>
      </g>
     </g>
    </g>
    <g id="ytick_24">
     <g id="line2d_36">
      <g>
       <use style="stroke:#000000;stroke-width:0.8;" x="336.205938" xlink:href="#m0678a54b70" y="170.202805"/>
      </g>
     </g>
     <g id="text_30">
      <!-- 0.30 -->
      <g transform="translate(343.205938 173.67468)scale(0.1 -0.1)">
       <use xlink:href="#TimesNewRomanPSMT-30"/>
       <use x="50" xlink:href="#TimesNewRomanPSMT-2e"/>
       <use x="75" xlink:href="#TimesNewRomanPSMT-33"/>
       <use x="125" xlink:href="#TimesNewRomanPSMT-30"/>
      </g>
     </g>
    </g>
    <g id="ytick_25">
     <g id="line2d_37">
      <g>
       <use style="stroke:#000000;stroke-width:0.8;" x="336.205938" xlink:href="#m0678a54b70" y="140.190994"/>
      </g>
     </g>
     <g id="text_31">
      <!-- 0.40 -->
      <g transform="translate(343.205938 143.662869)scale(0.1 -0.1)">
       <defs>
        <path d="M 2978 1563 
L 2978 1119 
L 2409 1119 
L 2409 0 
L 1894 0 
L 1894 1119 
L 100 1119 
L 100 1519 
L 2066 4325 
L 2409 4325 
L 2409 1563 
L 2978 1563 
z
M 1894 1563 
L 1894 3666 
L 406 1563 
L 1894 1563 
z
" id="TimesNewRomanPSMT-34" transform="scale(0.015625)"/>
       </defs>
       <use xlink:href="#TimesNewRomanPSMT-30"/>
       <use x="50" xlink:href="#TimesNewRomanPSMT-2e"/>
       <use x="75" xlink:href="#TimesNewRomanPSMT-34"/>
       <use x="125" xlink:href="#TimesNewRomanPSMT-30"/>
      </g>
     </g>
    </g>
    <g id="ytick_26">
     <g id="line2d_38">
      <g>
       <use style="stroke:#000000;stroke-width:0.8;" x="336.205938" xlink:href="#m0678a54b70" y="110.179183"/>
      </g>
     </g>
     <g id="text_32">
      <!-- 0.50 -->
      <g transform="translate(343.205938 113.651058)scale(0.1 -0.1)">
       <use xlink:href="#TimesNewRomanPSMT-30"/>
       <use x="50" xlink:href="#TimesNewRomanPSMT-2e"/>
       <use x="75" xlink:href="#TimesNewRomanPSMT-35"/>
       <use x="125" xlink:href="#TimesNewRomanPSMT-30"/>
      </g>
     </g>
    </g>
    <g id="ytick_27">
     <g id="line2d_39">
      <g>
       <use style="stroke:#000000;stroke-width:0.8;" x="336.205938" xlink:href="#m0678a54b70" y="80.167372"/>
      </g>
     </g>
     <g id="text_33">
      <!-- 0.60 -->
      <g transform="translate(343.205938 83.639247)scale(0.1 -0.1)">
       <use xlink:href="#TimesNewRomanPSMT-30"/>
       <use x="50" xlink:href="#TimesNewRomanPSMT-2e"/>
       <use x="75" xlink:href="#TimesNewRomanPSMT-36"/>
       <use x="125" xlink:href="#TimesNewRomanPSMT-30"/>
      </g>
     </g>
    </g>
    <g id="ytick_28">
     <g id="line2d_40">
      <g>
       <use style="stroke:#000000;stroke-width:0.8;" x="336.205938" xlink:href="#m0678a54b70" y="50.155561"/>
      </g>
     </g>
     <g id="text_34">
      <!-- 0.70 -->
      <g transform="translate(343.205938 53.627436)scale(0.1 -0.1)">
       <use xlink:href="#TimesNewRomanPSMT-30"/>
       <use x="50" xlink:href="#TimesNewRomanPSMT-2e"/>
       <use x="75" xlink:href="#TimesNewRomanPSMT-37"/>
       <use x="125" xlink:href="#TimesNewRomanPSMT-30"/>
      </g>
     </g>
    </g>
    <g id="ytick_29">
     <g id="line2d_41">
      <g>
       <use style="stroke:#000000;stroke-width:0.8;" x="336.205938" xlink:href="#m0678a54b70" y="20.14375"/>
      </g>
     </g>
     <g id="text_35">
      <!-- 0.80 -->
      <g transform="translate(343.205938 23.615625)scale(0.1 -0.1)">
       <use xlink:href="#TimesNewRomanPSMT-30"/>
       <use x="50" xlink:href="#TimesNewRomanPSMT-2e"/>
       <use x="75" xlink:href="#TimesNewRomanPSMT-38"/>
       <use x="125" xlink:href="#TimesNewRomanPSMT-30"/>
      </g>
     </g>
    </g>
    <g id="text_36">
     <!-- Battery Related Cost in /km -->
     <g transform="translate(371.649688 198.517557)rotate(-90)scale(0.1 -0.1)">
      <defs>
       <path d="M 4325 0 
L 3194 0 
L 1759 1981 
Q 1600 1975 1500 1975 
Q 1459 1975 1412 1976 
Q 1366 1978 1316 1981 
L 1316 750 
Q 1316 350 1403 253 
Q 1522 116 1759 116 
L 1925 116 
L 1925 0 
L 109 0 
L 109 116 
L 269 116 
Q 538 116 653 291 
Q 719 388 719 750 
L 719 3488 
Q 719 3888 631 3984 
Q 509 4122 269 4122 
L 109 4122 
L 109 4238 
L 1653 4238 
Q 2328 4238 2648 4139 
Q 2969 4041 3192 3777 
Q 3416 3513 3416 3147 
Q 3416 2756 3161 2468 
Q 2906 2181 2372 2063 
L 3247 847 
Q 3547 428 3762 290 
Q 3978 153 4325 116 
L 4325 0 
z
M 1316 2178 
Q 1375 2178 1419 2176 
Q 1463 2175 1491 2175 
Q 2097 2175 2405 2437 
Q 2713 2700 2713 3106 
Q 2713 3503 2464 3751 
Q 2216 4000 1806 4000 
Q 1625 4000 1316 3941 
L 1316 2178 
z
" id="TimesNewRomanPSMT-52" transform="scale(0.015625)"/>
       <path d="M 2050 2947 
L 2050 1972 
L 1947 1972 
Q 1828 2431 1642 2597 
Q 1456 2763 1169 2763 
Q 950 2763 815 2647 
Q 681 2531 681 2391 
Q 681 2216 781 2091 
Q 878 1963 1175 1819 
L 1631 1597 
Q 2266 1288 2266 781 
Q 2266 391 1970 151 
Q 1675 -88 1309 -88 
Q 1047 -88 709 6 
Q 606 38 541 38 
Q 469 38 428 -44 
L 325 -44 
L 325 978 
L 428 978 
Q 516 541 762 319 
Q 1009 97 1316 97 
Q 1531 97 1667 223 
Q 1803 350 1803 528 
Q 1803 744 1651 891 
Q 1500 1038 1047 1263 
Q 594 1488 453 1669 
Q 313 1847 313 2119 
Q 313 2472 555 2709 
Q 797 2947 1181 2947 
Q 1350 2947 1591 2875 
Q 1750 2828 1803 2828 
Q 1853 2828 1881 2850 
Q 1909 2872 1947 2947 
L 2050 2947 
z
" id="TimesNewRomanPSMT-73" transform="scale(0.015625)"/>
       <path d="M 2647 2303 
L 853 2303 
Q 844 2172 844 2044 
L 2569 2044 
L 2497 1800 
L 850 1800 
Q 875 1141 1113 700 
Q 1391 188 1863 188 
Q 2281 188 2563 403 
Q 2731 531 2991 891 
L 3088 828 
Q 2819 403 2600 222 
Q 2241 -75 1738 -75 
Q 1019 -75 625 522 
Q 303 1009 244 1800 
L -72 1800 
L 0 2044 
L 231 2044 
L 231 2094 
Q 231 2188 238 2303 
L -72 2303 
L 0 2547 
L 263 2547 
Q 369 3288 769 3769 
Q 1228 4325 1944 4325 
Q 2478 4325 3006 4050 
L 3006 3116 
L 2884 3116 
Q 2803 4119 1944 4119 
Q 1450 4119 1163 3597 
Q 941 3191 872 2547 
L 2719 2547 
L 2647 2303 
z
" id="TimesNewRomanPSMT-20ac" transform="scale(0.015625)"/>
       <path d="M 1794 4444 
L 259 -88 
L 9 -88 
L 1544 4444 
L 1794 4444 
z
" id="TimesNewRomanPSMT-2f" transform="scale(0.015625)"/>
       <path d="M 1050 2338 
Q 1363 2650 1419 2697 
Q 1559 2816 1721 2881 
Q 1884 2947 2044 2947 
Q 2313 2947 2506 2790 
Q 2700 2634 2766 2338 
Q 3088 2713 3309 2830 
Q 3531 2947 3766 2947 
Q 3994 2947 4170 2830 
Q 4347 2713 4450 2447 
Q 4519 2266 4519 1878 
L 4519 647 
Q 4519 378 4559 278 
Q 4591 209 4675 161 
Q 4759 113 4950 113 
L 4950 0 
L 3538 0 
L 3538 113 
L 3597 113 
Q 3781 113 3884 184 
Q 3956 234 3988 344 
Q 4000 397 4000 647 
L 4000 1878 
Q 4000 2228 3916 2372 
Q 3794 2572 3525 2572 
Q 3359 2572 3192 2489 
Q 3025 2406 2788 2181 
L 2781 2147 
L 2788 2013 
L 2788 647 
Q 2788 353 2820 281 
Q 2853 209 2943 161 
Q 3034 113 3253 113 
L 3253 0 
L 1806 0 
L 1806 113 
Q 2044 113 2133 169 
Q 2222 225 2256 338 
Q 2272 391 2272 647 
L 2272 1878 
Q 2272 2228 2169 2381 
Q 2031 2581 1784 2581 
Q 1616 2581 1450 2491 
Q 1191 2353 1050 2181 
L 1050 647 
Q 1050 366 1089 281 
Q 1128 197 1204 155 
Q 1281 113 1516 113 
L 1516 0 
L 100 0 
L 100 113 
Q 297 113 375 155 
Q 453 197 493 289 
Q 534 381 534 647 
L 534 1741 
Q 534 2213 506 2350 
Q 484 2453 437 2492 
Q 391 2531 309 2531 
Q 222 2531 100 2484 
L 53 2597 
L 916 2947 
L 1050 2947 
L 1050 2338 
z
" id="TimesNewRomanPSMT-6d" transform="scale(0.015625)"/>
      </defs>
      <use xlink:href="#TimesNewRomanPSMT-42"/>
      <use x="66.699219" xlink:href="#TimesNewRomanPSMT-61"/>
      <use x="111.083984" xlink:href="#TimesNewRomanPSMT-74"/>
      <use x="138.867188" xlink:href="#TimesNewRomanPSMT-74"/>
      <use x="166.650391" xlink:href="#TimesNewRomanPSMT-65"/>
      <use x="211.035156" xlink:href="#TimesNewRomanPSMT-72"/>
      <use x="244.335938" xlink:href="#TimesNewRomanPSMT-79"/>
      <use x="294.335938" xlink:href="#TimesNewRomanPSMT-20"/>
      <use x="319.335938" xlink:href="#TimesNewRomanPSMT-52"/>
      <use x="386.035156" xlink:href="#TimesNewRomanPSMT-65"/>
      <use x="430.419922" xlink:href="#TimesNewRomanPSMT-6c"/>
      <use x="458.203125" xlink:href="#TimesNewRomanPSMT-61"/>
      <use x="502.587891" xlink:href="#TimesNewRomanPSMT-74"/>
      <use x="530.371094" xlink:href="#TimesNewRomanPSMT-65"/>
      <use x="574.755859" xlink:href="#TimesNewRomanPSMT-64"/>
      <use x="624.755859" xlink:href="#TimesNewRomanPSMT-20"/>
      <use x="649.755859" xlink:href="#TimesNewRomanPSMT-43"/>
      <use x="716.455078" xlink:href="#TimesNewRomanPSMT-6f"/>
      <use x="766.455078" xlink:href="#TimesNewRomanPSMT-73"/>
      <use x="805.371094" xlink:href="#TimesNewRomanPSMT-74"/>
      <use x="833.154297" xlink:href="#TimesNewRomanPSMT-20"/>
      <use x="858.154297" xlink:href="#TimesNewRomanPSMT-69"/>
      <use x="885.9375" xlink:href="#TimesNewRomanPSMT-6e"/>
      <use x="935.9375" xlink:href="#TimesNewRomanPSMT-20"/>
      <use x="960.9375" xlink:href="#TimesNewRomanPSMT-20ac"/>
      <use x="1010.9375" xlink:href="#TimesNewRomanPSMT-2f"/>
      <use x="1038.720703" xlink:href="#TimesNewRomanPSMT-6b"/>
      <use x="1088.720703" xlink:href="#TimesNewRomanPSMT-6d"/>
     </g>
    </g>
   </g>
   <g id="LineCollection_1"/>
   <g id="LineCollection_2"/>
   <g id="patch_25">
    <path d="M 329.485938 260.238238 
L 329.485938 230.226427 
L 329.485938 50.155561 
L 329.485938 20.14375 
L 336.205938 20.14375 
L 336.205938 50.155561 
L 336.205938 230.226427 
L 336.205938 260.238238 
z
" style="fill:none;stroke:#000000;stroke-linecap:square;stroke-linejoin:miter;stroke-width:0.8;"/>
   </g>
  </g>
 </g>
 <defs>
  <clipPath id="pa938037f16">
   <rect height="109.133858" width="113.781818" x="69.085938" y="20.14375"/>
  </clipPath>
  <clipPath id="p72b2c1ce11">
   <rect height="109.133858" width="113.781818" x="205.624119" y="20.14375"/>
  </clipPath>
  <clipPath id="p5f7c4f074f">
   <rect height="109.133858" width="113.781818" x="69.085938" y="151.10438"/>
  </clipPath>
  <clipPath id="p90c86daee4">
   <rect height="109.133858" width="113.781818" x="205.624119" y="151.10438"/>
  </clipPath>
  <clipPath id="p998b4416f7">
   <rect height="240.094488" width="6.72" x="329.485938" y="20.14375"/>
  </clipPath>
 </defs>
 <defs>
  <pattern height="72" id="h70e1777fc8" patternUnits="userSpaceOnUse" width="72" x="0" y="0">
   <rect fill="#ffffff" height="73" width="73" x="0" y="0"/>
   <path d="M -36 36 
L 36 -36 
M -32 40 
L 40 -32 
M -28 44 
L 44 -28 
M -24 48 
L 48 -24 
M -20 52 
L 52 -20 
M -16 56 
L 56 -16 
M -12 60 
L 60 -12 
M -8 64 
L 64 -8 
M -4 68 
L 68 -4 
M 0 72 
L 72 0 
M 4 76 
L 76 4 
M 8 80 
L 80 8 
M 12 84 
L 84 12 
M 16 88 
L 88 16 
M 20 92 
L 92 20 
M 24 96 
L 96 24 
M 28 100 
L 100 28 
M 32 104 
L 104 32 
M 36 108 
L 108 36 
" style="fill:#0065bd;stroke:#0065bd;stroke-linecap:butt;stroke-linejoin:miter;stroke-width:0.5;"/>
  </pattern>
  <pattern height="72" id="h7f8b81c2a4" patternUnits="userSpaceOnUse" width="72" x="0" y="0">
   <rect fill="#ffffff" height="73" width="73" x="0" y="0"/>
   <path d="M -36 36 
L 36 -36 
M -32 40 
L 40 -32 
M -28 44 
L 44 -28 
M -24 48 
L 48 -24 
M -20 52 
L 52 -20 
M -16 56 
L 56 -16 
M -12 60 
L 60 -12 
M -8 64 
L 64 -8 
M -4 68 
L 68 -4 
M 0 72 
L 72 0 
M 4 76 
L 76 4 
M 8 80 
L 80 8 
M 12 84 
L 84 12 
M 16 88 
L 88 16 
M 20 92 
L 92 20 
M 24 96 
L 96 24 
M 28 100 
L 100 28 
M 32 104 
L 104 32 
M 36 108 
L 108 36 
" style="fill:#a2ad00;stroke:#a2ad00;stroke-linecap:butt;stroke-linejoin:miter;stroke-width:0.5;"/>
  </pattern>
 </defs>
</svg>
