<?xml version="1.0" encoding="utf-8" standalone="no"?>
<!DOCTYPE svg PUBLIC "-//W3C//DTD SVG 1.1//EN"
  "http://www.w3.org/Graphics/SVG/1.1/DTD/svg11.dtd">
<svg height="296.622613pt" version="1.1" viewBox="0 0 184.701563 296.622613" width="184.701563pt" xmlns="http://www.w3.org/2000/svg" xmlns:xlink="http://www.w3.org/1999/xlink">
 <metadata>
  <rdf:RDF xmlns:cc="http://creativecommons.org/ns#" xmlns:dc="http://purl.org/dc/elements/1.1/" xmlns:rdf="http://www.w3.org/1999/02/22-rdf-syntax-ns#">
   <cc:Work>
    <dc:type rdf:resource="http://purl.org/dc/dcmitype/StillImage"/>
    <dc:date>2024-01-11T09:50:01.486382</dc:date>
    <dc:format>image/svg+xml</dc:format>
    <dc:creator>
     <cc:Agent>
      <dc:title>Matplotlib v3.4.3, https://matplotlib.org/</dc:title>
     </cc:Agent>
    </dc:creator>
   </cc:Work>
  </rdf:RDF>
 </metadata>
 <defs>
  <style type="text/css">*{stroke-linecap:butt;stroke-linejoin:round;}</style>
 </defs>
 <g id="figure_1">
  <g id="patch_1">
   <path d="M 0 296.622613 
L 184.701563 296.622613 
L 184.701563 0 
L 0 0 
z
" style="fill:#ffffff;"/>
  </g>
  <g id="axes_1">
   <g id="patch_2">
    <path d="M 37.301563 129.277608 
L 167.501563 129.277608 
L 167.501563 20.14375 
L 37.301563 20.14375 
z
" style="fill:#ffffff;"/>
   </g>
   <g id="PathCollection_1">
    <path clip-path="url(#p2fa758eac7)" d="M 82.871562 112.487784 
L 89.381563 108.290328 
L 102.401563 108.290328 
L 108.911563 104.092872 
L 115.421563 99.895416 
L 128.441563 99.895416 
L 141.461563 99.895416 
L 147.971563 95.69796 
L 154.481563 91.500503 
L 167.501563 91.500503 
L 167.501563 87.303047 
L 167.501563 78.908135 
L 167.501563 70.513223 
L 167.501563 62.118311 
L 167.501563 53.723399 
L 154.481563 62.118311 
L 141.461563 62.118311 
L 141.461563 70.513223 
L 128.441563 78.908135 
L 115.421563 87.303047 
L 102.401563 95.69796 
L 89.381563 104.092872 
L 76.361563 112.487784 
L 76.361563 116.68524 
z
" style="fill:#0a2d57;fill-opacity:0.5;"/>
   </g>
   <g id="PathCollection_2">
    <path clip-path="url(#p2fa758eac7)" d="M 89.381563 129.277608 
L 102.401563 129.277608 
L 115.421563 129.277608 
L 128.441563 129.277608 
L 141.461563 129.277608 
L 154.481563 129.277608 
L 167.501563 129.277608 
L 167.501563 120.882696 
L 167.501563 112.487784 
L 167.501563 104.092872 
L 167.501563 95.69796 
L 167.501563 91.500503 
L 154.481563 91.500503 
L 147.971563 95.69796 
L 141.461563 99.895416 
L 128.441563 99.895416 
L 115.421563 99.895416 
L 108.911563 104.092872 
L 102.401563 108.290328 
L 89.381563 108.290328 
L 82.871562 112.487784 
L 76.361563 116.68524 
L 76.361563 120.882696 
L 76.361563 129.277608 
z
" style="fill:#e37222;fill-opacity:0.5;"/>
   </g>
   <g id="line2d_1">
    <path clip-path="url(#p2fa758eac7)" d="M 82.116403 129.277608 
L 82.116403 20.14375 
" style="fill:none;stroke:#0065bd;stroke-dasharray:1.5,2.475;stroke-dashoffset:0;stroke-width:1.5;"/>
   </g>
   <g id="matplotlib.axis_1">
    <g id="xtick_1">
     <g id="line2d_2">
      <defs>
       <path d="M 0 0 
L 0 3.5 
" id="md483d76c6e" style="stroke:#000000;stroke-width:0.8;"/>
      </defs>
      <g>
       <use style="stroke:#000000;stroke-width:0.8;" x="63.341562" xlink:href="#md483d76c6e" y="129.277608"/>
      </g>
     </g>
    </g>
    <g id="xtick_2">
     <g id="line2d_3">
      <g>
       <use style="stroke:#000000;stroke-width:0.8;" x="115.421563" xlink:href="#md483d76c6e" y="129.277608"/>
      </g>
     </g>
    </g>
    <g id="xtick_3">
     <g id="line2d_4">
      <g>
       <use style="stroke:#000000;stroke-width:0.8;" x="167.501563" xlink:href="#md483d76c6e" y="129.277608"/>
      </g>
     </g>
    </g>
   </g>
   <g id="matplotlib.axis_2">
    <g id="ytick_1">
     <g id="line2d_5">
      <defs>
       <path d="M 0 0 
L -3.5 0 
" id="m9fb0837c9b" style="stroke:#000000;stroke-width:0.8;"/>
      </defs>
      <g>
       <use style="stroke:#000000;stroke-width:0.8;" x="37.301563" xlink:href="#m9fb0837c9b" y="129.277608"/>
      </g>
     </g>
     <g id="text_1">
      <!-- 0 -->
      <g transform="translate(25.301563 132.749483)scale(0.1 -0.1)">
       <defs>
        <path d="M 231 2094 
Q 231 2819 450 3342 
Q 669 3866 1031 4122 
Q 1313 4325 1613 4325 
Q 2100 4325 2488 3828 
Q 2972 3213 2972 2159 
Q 2972 1422 2759 906 
Q 2547 391 2217 158 
Q 1888 -75 1581 -75 
Q 975 -75 572 641 
Q 231 1244 231 2094 
z
M 844 2016 
Q 844 1141 1059 588 
Q 1238 122 1591 122 
Q 1759 122 1940 273 
Q 2122 425 2216 781 
Q 2359 1319 2359 2297 
Q 2359 3022 2209 3506 
Q 2097 3866 1919 4016 
Q 1791 4119 1609 4119 
Q 1397 4119 1231 3928 
Q 1006 3669 925 3112 
Q 844 2556 844 2016 
z
" id="TimesNewRomanPSMT-30" transform="scale(0.015625)"/>
       </defs>
       <use xlink:href="#TimesNewRomanPSMT-30"/>
      </g>
     </g>
    </g>
    <g id="ytick_2">
     <g id="line2d_6">
      <g>
       <use style="stroke:#000000;stroke-width:0.8;" x="37.301563" xlink:href="#m9fb0837c9b" y="87.303047"/>
      </g>
     </g>
     <g id="text_2">
      <!-- 10 -->
      <g transform="translate(20.301563 90.774922)scale(0.1 -0.1)">
       <defs>
        <path d="M 750 3822 
L 1781 4325 
L 1884 4325 
L 1884 747 
Q 1884 391 1914 303 
Q 1944 216 2037 169 
Q 2131 122 2419 116 
L 2419 0 
L 825 0 
L 825 116 
Q 1125 122 1212 167 
Q 1300 213 1334 289 
Q 1369 366 1369 747 
L 1369 3034 
Q 1369 3497 1338 3628 
Q 1316 3728 1258 3775 
Q 1200 3822 1119 3822 
Q 1003 3822 797 3725 
L 750 3822 
z
" id="TimesNewRomanPSMT-31" transform="scale(0.015625)"/>
       </defs>
       <use xlink:href="#TimesNewRomanPSMT-31"/>
       <use x="50" xlink:href="#TimesNewRomanPSMT-30"/>
      </g>
     </g>
    </g>
    <g id="ytick_3">
     <g id="line2d_7">
      <g>
       <use style="stroke:#000000;stroke-width:0.8;" x="37.301563" xlink:href="#m9fb0837c9b" y="45.328487"/>
      </g>
     </g>
     <g id="text_3">
      <!-- 20 -->
      <g transform="translate(20.301563 48.800362)scale(0.1 -0.1)">
       <defs>
        <path d="M 2934 816 
L 2638 0 
L 138 0 
L 138 116 
Q 1241 1122 1691 1759 
Q 2141 2397 2141 2925 
Q 2141 3328 1894 3587 
Q 1647 3847 1303 3847 
Q 991 3847 742 3664 
Q 494 3481 375 3128 
L 259 3128 
Q 338 3706 661 4015 
Q 984 4325 1469 4325 
Q 1984 4325 2329 3994 
Q 2675 3663 2675 3213 
Q 2675 2891 2525 2569 
Q 2294 2063 1775 1497 
Q 997 647 803 472 
L 1909 472 
Q 2247 472 2383 497 
Q 2519 522 2628 598 
Q 2738 675 2819 816 
L 2934 816 
z
" id="TimesNewRomanPSMT-32" transform="scale(0.015625)"/>
       </defs>
       <use xlink:href="#TimesNewRomanPSMT-32"/>
       <use x="50" xlink:href="#TimesNewRomanPSMT-30"/>
      </g>
     </g>
    </g>
    <g id="text_4">
     <!-- Payload in t -->
     <g transform="translate(14.14375 98.597398)rotate(-90)scale(0.1 -0.1)">
      <defs>
       <path d="M 1313 1984 
L 1313 750 
Q 1313 350 1400 253 
Q 1519 116 1759 116 
L 1922 116 
L 1922 0 
L 106 0 
L 106 116 
L 266 116 
Q 534 116 650 291 
Q 713 388 713 750 
L 713 3488 
Q 713 3888 628 3984 
Q 506 4122 266 4122 
L 106 4122 
L 106 4238 
L 1659 4238 
Q 2228 4238 2556 4120 
Q 2884 4003 3109 3725 
Q 3334 3447 3334 3066 
Q 3334 2547 2992 2222 
Q 2650 1897 2025 1897 
Q 1872 1897 1694 1919 
Q 1516 1941 1313 1984 
z
M 1313 2163 
Q 1478 2131 1606 2115 
Q 1734 2100 1825 2100 
Q 2150 2100 2386 2351 
Q 2622 2603 2622 3003 
Q 2622 3278 2509 3514 
Q 2397 3750 2190 3867 
Q 1984 3984 1722 3984 
Q 1563 3984 1313 3925 
L 1313 2163 
z
" id="TimesNewRomanPSMT-50" transform="scale(0.015625)"/>
       <path d="M 1822 413 
Q 1381 72 1269 19 
Q 1100 -59 909 -59 
Q 613 -59 420 144 
Q 228 347 228 678 
Q 228 888 322 1041 
Q 450 1253 767 1440 
Q 1084 1628 1822 1897 
L 1822 2009 
Q 1822 2438 1686 2597 
Q 1550 2756 1291 2756 
Q 1094 2756 978 2650 
Q 859 2544 859 2406 
L 866 2225 
Q 866 2081 792 2003 
Q 719 1925 600 1925 
Q 484 1925 411 2006 
Q 338 2088 338 2228 
Q 338 2497 613 2722 
Q 888 2947 1384 2947 
Q 1766 2947 2009 2819 
Q 2194 2722 2281 2516 
Q 2338 2381 2338 1966 
L 2338 994 
Q 2338 584 2353 492 
Q 2369 400 2405 369 
Q 2441 338 2488 338 
Q 2538 338 2575 359 
Q 2641 400 2828 588 
L 2828 413 
Q 2478 -56 2159 -56 
Q 2006 -56 1915 50 
Q 1825 156 1822 413 
z
M 1822 616 
L 1822 1706 
Q 1350 1519 1213 1441 
Q 966 1303 859 1153 
Q 753 1003 753 825 
Q 753 600 887 451 
Q 1022 303 1197 303 
Q 1434 303 1822 616 
z
" id="TimesNewRomanPSMT-61" transform="scale(0.015625)"/>
       <path d="M 38 2863 
L 1372 2863 
L 1372 2747 
L 1306 2747 
Q 1166 2747 1095 2686 
Q 1025 2625 1025 2534 
Q 1025 2413 1128 2197 
L 1825 753 
L 2466 2334 
Q 2519 2463 2519 2588 
Q 2519 2644 2497 2672 
Q 2472 2706 2419 2726 
Q 2366 2747 2231 2747 
L 2231 2863 
L 3163 2863 
L 3163 2747 
Q 3047 2734 2984 2696 
Q 2922 2659 2847 2556 
Q 2819 2513 2741 2316 
L 1575 -541 
Q 1406 -956 1132 -1168 
Q 859 -1381 606 -1381 
Q 422 -1381 303 -1275 
Q 184 -1169 184 -1031 
Q 184 -900 270 -820 
Q 356 -741 506 -741 
Q 609 -741 788 -809 
Q 913 -856 944 -856 
Q 1038 -856 1148 -759 
Q 1259 -663 1372 -384 
L 1575 113 
L 547 2272 
Q 500 2369 397 2513 
Q 319 2622 269 2659 
Q 197 2709 38 2747 
L 38 2863 
z
" id="TimesNewRomanPSMT-79" transform="scale(0.015625)"/>
       <path d="M 1184 4444 
L 1184 647 
Q 1184 378 1223 290 
Q 1263 203 1344 158 
Q 1425 113 1647 113 
L 1647 0 
L 244 0 
L 244 113 
Q 441 113 512 153 
Q 584 194 625 287 
Q 666 381 666 647 
L 666 3247 
Q 666 3731 644 3842 
Q 622 3953 573 3993 
Q 525 4034 450 4034 
Q 369 4034 244 3984 
L 191 4094 
L 1044 4444 
L 1184 4444 
z
" id="TimesNewRomanPSMT-6c" transform="scale(0.015625)"/>
       <path d="M 1600 2947 
Q 2250 2947 2644 2453 
Q 2978 2031 2978 1484 
Q 2978 1100 2793 706 
Q 2609 313 2286 112 
Q 1963 -88 1566 -88 
Q 919 -88 538 428 
Q 216 863 216 1403 
Q 216 1797 411 2186 
Q 606 2575 925 2761 
Q 1244 2947 1600 2947 
z
M 1503 2744 
Q 1338 2744 1170 2645 
Q 1003 2547 900 2300 
Q 797 2053 797 1666 
Q 797 1041 1045 587 
Q 1294 134 1700 134 
Q 2003 134 2200 384 
Q 2397 634 2397 1244 
Q 2397 2006 2069 2444 
Q 1847 2744 1503 2744 
z
" id="TimesNewRomanPSMT-6f" transform="scale(0.015625)"/>
       <path d="M 2222 322 
Q 2013 103 1813 7 
Q 1613 -88 1381 -88 
Q 913 -88 563 304 
Q 213 697 213 1313 
Q 213 1928 600 2439 
Q 988 2950 1597 2950 
Q 1975 2950 2222 2709 
L 2222 3238 
Q 2222 3728 2198 3840 
Q 2175 3953 2125 3993 
Q 2075 4034 2000 4034 
Q 1919 4034 1784 3984 
L 1744 4094 
L 2597 4444 
L 2738 4444 
L 2738 1134 
Q 2738 631 2761 520 
Q 2784 409 2836 365 
Q 2888 322 2956 322 
Q 3041 322 3181 375 
L 3216 266 
L 2366 -88 
L 2222 -88 
L 2222 322 
z
M 2222 541 
L 2222 2016 
Q 2203 2228 2109 2403 
Q 2016 2578 1861 2667 
Q 1706 2756 1559 2756 
Q 1284 2756 1069 2509 
Q 784 2184 784 1559 
Q 784 928 1059 592 
Q 1334 256 1672 256 
Q 1956 256 2222 541 
z
" id="TimesNewRomanPSMT-64" transform="scale(0.015625)"/>
       <path id="TimesNewRomanPSMT-20" transform="scale(0.015625)"/>
       <path d="M 928 4444 
Q 1059 4444 1151 4351 
Q 1244 4259 1244 4128 
Q 1244 3997 1151 3903 
Q 1059 3809 928 3809 
Q 797 3809 703 3903 
Q 609 3997 609 4128 
Q 609 4259 701 4351 
Q 794 4444 928 4444 
z
M 1188 2947 
L 1188 647 
Q 1188 378 1227 289 
Q 1266 200 1342 156 
Q 1419 113 1622 113 
L 1622 0 
L 231 0 
L 231 113 
Q 441 113 512 153 
Q 584 194 626 287 
Q 669 381 669 647 
L 669 1750 
Q 669 2216 641 2353 
Q 619 2453 572 2492 
Q 525 2531 444 2531 
Q 356 2531 231 2484 
L 188 2597 
L 1050 2947 
L 1188 2947 
z
" id="TimesNewRomanPSMT-69" transform="scale(0.015625)"/>
       <path d="M 1034 2341 
Q 1538 2947 1994 2947 
Q 2228 2947 2397 2830 
Q 2566 2713 2666 2444 
Q 2734 2256 2734 1869 
L 2734 647 
Q 2734 375 2778 278 
Q 2813 200 2889 156 
Q 2966 113 3172 113 
L 3172 0 
L 1756 0 
L 1756 113 
L 1816 113 
Q 2016 113 2095 173 
Q 2175 234 2206 353 
Q 2219 400 2219 647 
L 2219 1819 
Q 2219 2209 2117 2386 
Q 2016 2563 1775 2563 
Q 1403 2563 1034 2156 
L 1034 647 
Q 1034 356 1069 288 
Q 1113 197 1189 155 
Q 1266 113 1500 113 
L 1500 0 
L 84 0 
L 84 113 
L 147 113 
Q 366 113 442 223 
Q 519 334 519 647 
L 519 1709 
Q 519 2225 495 2337 
Q 472 2450 423 2490 
Q 375 2531 294 2531 
Q 206 2531 84 2484 
L 38 2597 
L 900 2947 
L 1034 2947 
L 1034 2341 
z
" id="TimesNewRomanPSMT-6e" transform="scale(0.015625)"/>
       <path d="M 1031 3803 
L 1031 2863 
L 1700 2863 
L 1700 2644 
L 1031 2644 
L 1031 788 
Q 1031 509 1111 412 
Q 1191 316 1316 316 
Q 1419 316 1516 380 
Q 1613 444 1666 569 
L 1788 569 
Q 1678 263 1478 108 
Q 1278 -47 1066 -47 
Q 922 -47 784 33 
Q 647 113 581 261 
Q 516 409 516 719 
L 516 2644 
L 63 2644 
L 63 2747 
Q 234 2816 414 2980 
Q 594 3144 734 3369 
Q 806 3488 934 3803 
L 1031 3803 
z
" id="TimesNewRomanPSMT-74" transform="scale(0.015625)"/>
      </defs>
      <use xlink:href="#TimesNewRomanPSMT-50"/>
      <use x="55.615234" xlink:href="#TimesNewRomanPSMT-61"/>
      <use x="100" xlink:href="#TimesNewRomanPSMT-79"/>
      <use x="150" xlink:href="#TimesNewRomanPSMT-6c"/>
      <use x="177.783203" xlink:href="#TimesNewRomanPSMT-6f"/>
      <use x="227.783203" xlink:href="#TimesNewRomanPSMT-61"/>
      <use x="272.167969" xlink:href="#TimesNewRomanPSMT-64"/>
      <use x="322.167969" xlink:href="#TimesNewRomanPSMT-20"/>
      <use x="347.167969" xlink:href="#TimesNewRomanPSMT-69"/>
      <use x="374.951172" xlink:href="#TimesNewRomanPSMT-6e"/>
      <use x="424.951172" xlink:href="#TimesNewRomanPSMT-20"/>
      <use x="449.951172" xlink:href="#TimesNewRomanPSMT-74"/>
     </g>
    </g>
   </g>
   <g id="line2d_8">
    <path clip-path="url(#p2fa758eac7)" d="M 76.361563 116.68524 
L 89.381563 108.290328 
L 102.401563 108.290328 
L 115.421563 99.895416 
L 128.441563 99.895416 
L 141.461563 99.895416 
L 154.481563 91.500503 
L 167.501563 91.500503 
" style="fill:none;stroke:#0a2d57;stroke-linecap:square;stroke-opacity:0.5;stroke-width:1.5;"/>
   </g>
   <g id="line2d_9">
    <path clip-path="url(#p2fa758eac7)" d="M 76.361563 116.68524 
L 89.381563 108.290328 
L 102.401563 99.895416 
L 115.421563 91.500503 
L 128.441563 91.500503 
L 141.461563 83.105591 
L 154.481563 83.105591 
L 167.501563 74.710679 
" style="fill:none;stroke:#0a2d57;stroke-dasharray:1.5,2.475;stroke-dashoffset:0;stroke-width:1.5;"/>
   </g>
   <g id="line2d_10">
    <path clip-path="url(#p2fa758eac7)" d="M 76.361563 116.68524 
L 89.381563 108.290328 
L 102.401563 108.290328 
L 115.421563 108.290328 
L 128.441563 99.895416 
L 141.461563 99.895416 
L 154.481563 99.895416 
L 167.501563 91.500503 
" style="fill:none;stroke:#0a2d57;stroke-dasharray:5.55,2.4;stroke-dashoffset:0;stroke-width:1.5;"/>
   </g>
   <g id="line2d_11">
    <path clip-path="url(#p2fa758eac7)" d="M 76.361563 116.68524 
L 89.381563 108.290328 
L 102.401563 108.290328 
L 115.421563 108.290328 
L 128.441563 108.290328 
L 141.461563 108.290328 
L 154.481563 108.290328 
L 167.501563 108.290328 
" style="fill:none;stroke:#e37222;stroke-dasharray:1.5,2.475;stroke-dashoffset:0;stroke-width:1.5;"/>
   </g>
   <g id="line2d_12">
    <path clip-path="url(#p2fa758eac7)" d="M 76.361563 116.68524 
L 89.381563 108.290328 
L 102.401563 99.895416 
L 115.421563 91.500503 
L 128.441563 83.105591 
L 141.461563 83.105591 
L 154.481563 74.710679 
L 167.501563 74.710679 
" style="fill:none;stroke:#e37222;stroke-dasharray:5.55,2.4;stroke-dashoffset:0;stroke-width:1.5;"/>
   </g>
   <g id="patch_3">
    <path d="M 37.301563 129.277608 
L 37.301563 20.14375 
" style="fill:none;stroke:#000000;stroke-linecap:square;stroke-linejoin:miter;stroke-width:0.8;"/>
   </g>
   <g id="patch_4">
    <path d="M 167.501563 129.277608 
L 167.501563 20.14375 
" style="fill:none;stroke:#000000;stroke-linecap:square;stroke-linejoin:miter;stroke-width:0.8;"/>
   </g>
   <g id="patch_5">
    <path d="M 37.301563 129.277608 
L 167.501563 129.277608 
" style="fill:none;stroke:#000000;stroke-linecap:square;stroke-linejoin:miter;stroke-width:0.8;"/>
   </g>
   <g id="patch_6">
    <path d="M 37.301563 20.14375 
L 167.501563 20.14375 
" style="fill:none;stroke:#000000;stroke-linecap:square;stroke-linejoin:miter;stroke-width:0.8;"/>
   </g>
   <g id="text_5">
    <!-- 700km -->
    <g transform="translate(88.5125 14.14375)scale(0.1 -0.1)">
     <defs>
      <path d="M 644 4238 
L 2916 4238 
L 2916 4119 
L 1503 -88 
L 1153 -88 
L 2419 3728 
L 1253 3728 
Q 900 3728 750 3644 
Q 488 3500 328 3200 
L 238 3234 
L 644 4238 
z
" id="TimesNewRomanPSMT-37" transform="scale(0.015625)"/>
      <path d="M 1047 4444 
L 1047 1597 
L 1775 2259 
Q 2006 2472 2044 2528 
Q 2069 2566 2069 2603 
Q 2069 2666 2017 2711 
Q 1966 2756 1847 2763 
L 1847 2863 
L 3091 2863 
L 3091 2763 
Q 2834 2756 2664 2684 
Q 2494 2613 2291 2428 
L 1556 1750 
L 2291 822 
Q 2597 438 2703 334 
Q 2853 188 2966 144 
Q 3044 113 3238 113 
L 3238 0 
L 1847 0 
L 1847 113 
Q 1966 116 2008 148 
Q 2050 181 2050 241 
Q 2050 313 1925 472 
L 1047 1594 
L 1047 644 
Q 1047 366 1086 278 
Q 1125 191 1197 153 
Q 1269 116 1509 113 
L 1509 0 
L 53 0 
L 53 113 
Q 272 113 381 166 
Q 447 200 481 272 
Q 528 375 528 628 
L 528 3234 
Q 528 3731 506 3842 
Q 484 3953 434 3995 
Q 384 4038 303 4038 
Q 238 4038 106 3984 
L 53 4094 
L 903 4444 
L 1047 4444 
z
" id="TimesNewRomanPSMT-6b" transform="scale(0.015625)"/>
      <path d="M 1050 2338 
Q 1363 2650 1419 2697 
Q 1559 2816 1721 2881 
Q 1884 2947 2044 2947 
Q 2313 2947 2506 2790 
Q 2700 2634 2766 2338 
Q 3088 2713 3309 2830 
Q 3531 2947 3766 2947 
Q 3994 2947 4170 2830 
Q 4347 2713 4450 2447 
Q 4519 2266 4519 1878 
L 4519 647 
Q 4519 378 4559 278 
Q 4591 209 4675 161 
Q 4759 113 4950 113 
L 4950 0 
L 3538 0 
L 3538 113 
L 3597 113 
Q 3781 113 3884 184 
Q 3956 234 3988 344 
Q 4000 397 4000 647 
L 4000 1878 
Q 4000 2228 3916 2372 
Q 3794 2572 3525 2572 
Q 3359 2572 3192 2489 
Q 3025 2406 2788 2181 
L 2781 2147 
L 2788 2013 
L 2788 647 
Q 2788 353 2820 281 
Q 2853 209 2943 161 
Q 3034 113 3253 113 
L 3253 0 
L 1806 0 
L 1806 113 
Q 2044 113 2133 169 
Q 2222 225 2256 338 
Q 2272 391 2272 647 
L 2272 1878 
Q 2272 2228 2169 2381 
Q 2031 2581 1784 2581 
Q 1616 2581 1450 2491 
Q 1191 2353 1050 2181 
L 1050 647 
Q 1050 366 1089 281 
Q 1128 197 1204 155 
Q 1281 113 1516 113 
L 1516 0 
L 100 0 
L 100 113 
Q 297 113 375 155 
Q 453 197 493 289 
Q 534 381 534 647 
L 534 1741 
Q 534 2213 506 2350 
Q 484 2453 437 2492 
Q 391 2531 309 2531 
Q 222 2531 100 2484 
L 53 2597 
L 916 2947 
L 1050 2947 
L 1050 2338 
z
" id="TimesNewRomanPSMT-6d" transform="scale(0.015625)"/>
     </defs>
     <use xlink:href="#TimesNewRomanPSMT-37"/>
     <use x="50" xlink:href="#TimesNewRomanPSMT-30"/>
     <use x="100" xlink:href="#TimesNewRomanPSMT-30"/>
     <use x="150" xlink:href="#TimesNewRomanPSMT-6b"/>
     <use x="200" xlink:href="#TimesNewRomanPSMT-6d"/>
    </g>
   </g>
   <g id="PolyCollection_1">
    <path clip-path="url(#p2fa758eac7)" d="M 167.501563 129.277608 
L 133.190608 129.277608 
L 133.190608 120.882696 
L 133.190608 112.487784 
L 133.190608 104.092872 
L 133.190608 95.69796 
L 133.190608 87.303047 
L 133.190608 78.908135 
L 133.190608 70.513223 
L 133.190608 62.118311 
L 133.190608 53.723399 
L 133.190608 45.328487 
L 133.190608 36.933574 
L 133.190608 28.538662 
L 133.190608 20.14375 
L 133.190608 11.748838 
L 167.501563 11.748838 
L 167.501563 11.748838 
L 167.501563 20.14375 
L 167.501563 28.538662 
L 167.501563 36.933574 
L 167.501563 45.328487 
L 167.501563 53.723399 
L 167.501563 62.118311 
L 167.501563 70.513223 
L 167.501563 78.908135 
L 167.501563 87.303047 
L 167.501563 95.69796 
L 167.501563 104.092872 
L 167.501563 112.487784 
L 167.501563 120.882696 
L 167.501563 129.277608 
z
" style="fill:url(#hd050d8d562);stroke:#0065bd;"/>
   </g>
   <g id="PolyCollection_2">
    <path clip-path="url(#p2fa758eac7)" d="M 37.301563 20.14375 
L 37.301563 23.792348 
L 50.321563 25.09534 
L 63.341562 26.398331 
L 76.361563 27.701322 
L 89.381563 29.004313 
L 102.401563 30.307305 
L 115.421563 31.610296 
L 128.441563 32.913287 
L 141.461563 34.216279 
L 154.481563 35.51927 
L 167.501563 36.822261 
L 167.501563 20.14375 
L 167.501563 20.14375 
L 154.481563 20.14375 
L 141.461563 20.14375 
L 128.441563 20.14375 
L 115.421563 20.14375 
L 102.401563 20.14375 
L 89.381563 20.14375 
L 76.361563 20.14375 
L 63.341562 20.14375 
L 50.321563 20.14375 
L 37.301563 20.14375 
z
" style="fill:url(#h7731a153f2);stroke:#a2ad00;"/>
   </g>
   <g id="line2d_13">
    <path clip-path="url(#p2fa758eac7)" d="M 37.301563 27.557634 
L 50.321563 29.237154 
L 63.341562 30.916674 
L 76.361563 32.596194 
L 89.381563 34.275714 
L 102.401563 35.955234 
L 115.421563 37.634754 
L 128.441563 39.314274 
L 141.461563 40.993794 
L 154.481563 42.673313 
L 167.501563 44.352833 
" style="fill:none;stroke:#a2ad00;stroke-dasharray:1.5,2.475;stroke-dashoffset:0;stroke-width:1.5;"/>
   </g>
  </g>
  <g id="axes_2">
   <g id="patch_7">
    <path d="M 37.301563 260.238238 
L 167.501563 260.238238 
L 167.501563 151.10438 
L 37.301563 151.10438 
z
" style="fill:#ffffff;"/>
   </g>
   <g id="PathCollection_3">
    <path clip-path="url(#p7dd723e0f4)" d="M 102.401563 172.09166 
L 108.911563 167.894204 
L 115.421563 163.696748 
L 128.441563 163.696748 
L 141.461563 163.696748 
L 154.481563 163.696748 
L 167.501563 163.696748 
L 167.501563 159.499292 
L 167.501563 151.10438 
L 167.501563 142.709468 
L 154.481563 142.709468 
L 141.461563 142.709468 
L 128.441563 142.709468 
L 115.421563 142.709468 
L 102.401563 142.709468 
L 102.401563 151.10438 
L 102.401563 159.499292 
L 102.401563 167.894204 
L 95.891563 172.09166 
z
" style="fill:#0a2d57;fill-opacity:0.5;"/>
   </g>
   <g id="PathCollection_4">
    <path clip-path="url(#p7dd723e0f4)" d="M 50.321563 260.238238 
L 63.341562 260.238238 
L 76.361563 260.238238 
L 89.381563 260.238238 
L 102.401563 260.238238 
L 115.421563 260.238238 
L 128.441563 260.238238 
L 141.461563 260.238238 
L 154.481563 260.238238 
L 167.501563 260.238238 
L 167.501563 251.843326 
L 167.501563 243.448414 
L 167.501563 235.053502 
L 167.501563 226.658589 
L 167.501563 218.263677 
L 167.501563 209.868765 
L 167.501563 201.473853 
L 167.501563 193.078941 
L 167.501563 184.684029 
L 167.501563 176.289116 
L 167.501563 167.894204 
L 167.501563 163.696748 
L 154.481563 163.696748 
L 141.461563 163.696748 
L 128.441563 163.696748 
L 115.421563 163.696748 
L 108.911563 167.894204 
L 102.401563 172.09166 
L 95.891563 172.09166 
L 89.381563 176.289116 
L 76.361563 184.684029 
L 63.341562 193.078941 
L 63.341562 201.473853 
L 50.321563 209.868765 
L 50.321563 218.263677 
L 37.301563 226.658589 
L 37.301563 235.053502 
L 37.301563 243.448414 
L 37.301563 251.843326 
L 37.301563 260.238238 
z
" style="fill:#e37222;fill-opacity:0.5;"/>
   </g>
   <g id="patch_8">
    <path clip-path="url(#p7dd723e0f4)" d="M 102.427603 235.053502 
L 100.344403 236.312738 
L 100.344403 235.473247 
L 82.116403 235.473247 
L 82.116403 234.633756 
L 100.344403 234.633756 
L 100.344403 233.794265 
z
" style="fill:#999999;stroke:#475058;stroke-linejoin:miter;"/>
   </g>
   <g id="patch_9">
    <path clip-path="url(#p7dd723e0f4)" d="M 102.427603 235.053502 
L 100.344403 236.312738 
L 100.344403 235.473247 
L 82.116403 235.473247 
L 82.116403 234.633756 
L 100.344403 234.633756 
L 100.344403 233.794265 
z
" style="fill:#999999;stroke:#475058;stroke-linejoin:miter;"/>
   </g>
   <g id="line2d_14">
    <path clip-path="url(#p7dd723e0f4)" d="M 82.116403 260.238238 
L 82.116403 151.10438 
" style="fill:none;stroke:#0065bd;stroke-dasharray:1.5,2.475;stroke-dashoffset:0;stroke-width:1.5;"/>
   </g>
   <g id="matplotlib.axis_3">
    <g id="xtick_4">
     <g id="line2d_15">
      <g>
       <use style="stroke:#000000;stroke-width:0.8;" x="63.341562" xlink:href="#md483d76c6e" y="260.238238"/>
      </g>
     </g>
     <g id="text_6">
      <!-- 600 -->
      <g transform="translate(55.841562 274.181988)scale(0.1 -0.1)">
       <defs>
        <path d="M 2869 4325 
L 2869 4209 
Q 2456 4169 2195 4045 
Q 1934 3922 1679 3669 
Q 1425 3416 1258 3105 
Q 1091 2794 978 2366 
Q 1428 2675 1881 2675 
Q 2316 2675 2634 2325 
Q 2953 1975 2953 1425 
Q 2953 894 2631 456 
Q 2244 -75 1606 -75 
Q 1172 -75 869 213 
Q 275 772 275 1663 
Q 275 2231 503 2743 
Q 731 3256 1154 3653 
Q 1578 4050 1965 4187 
Q 2353 4325 2688 4325 
L 2869 4325 
z
M 925 2138 
Q 869 1716 869 1456 
Q 869 1156 980 804 
Q 1091 453 1309 247 
Q 1469 100 1697 100 
Q 1969 100 2183 356 
Q 2397 613 2397 1088 
Q 2397 1622 2184 2012 
Q 1972 2403 1581 2403 
Q 1463 2403 1327 2353 
Q 1191 2303 925 2138 
z
" id="TimesNewRomanPSMT-36" transform="scale(0.015625)"/>
       </defs>
       <use xlink:href="#TimesNewRomanPSMT-36"/>
       <use x="50" xlink:href="#TimesNewRomanPSMT-30"/>
       <use x="100" xlink:href="#TimesNewRomanPSMT-30"/>
      </g>
     </g>
    </g>
    <g id="xtick_5">
     <g id="line2d_16">
      <g>
       <use style="stroke:#000000;stroke-width:0.8;" x="115.421563" xlink:href="#md483d76c6e" y="260.238238"/>
      </g>
     </g>
     <g id="text_7">
      <!-- 800 -->
      <g transform="translate(107.921563 274.181988)scale(0.1 -0.1)">
       <defs>
        <path d="M 1228 2134 
Q 725 2547 579 2797 
Q 434 3047 434 3316 
Q 434 3728 753 4026 
Q 1072 4325 1600 4325 
Q 2113 4325 2425 4047 
Q 2738 3769 2738 3413 
Q 2738 3175 2569 2928 
Q 2400 2681 1866 2347 
Q 2416 1922 2594 1678 
Q 2831 1359 2831 1006 
Q 2831 559 2490 242 
Q 2150 -75 1597 -75 
Q 994 -75 656 303 
Q 388 606 388 966 
Q 388 1247 577 1523 
Q 766 1800 1228 2134 
z
M 1719 2469 
Q 2094 2806 2194 3001 
Q 2294 3197 2294 3444 
Q 2294 3772 2109 3958 
Q 1925 4144 1606 4144 
Q 1288 4144 1088 3959 
Q 888 3775 888 3528 
Q 888 3366 970 3203 
Q 1053 3041 1206 2894 
L 1719 2469 
z
M 1375 2016 
Q 1116 1797 991 1539 
Q 866 1281 866 981 
Q 866 578 1086 336 
Q 1306 94 1647 94 
Q 1984 94 2187 284 
Q 2391 475 2391 747 
Q 2391 972 2272 1150 
Q 2050 1481 1375 2016 
z
" id="TimesNewRomanPSMT-38" transform="scale(0.015625)"/>
       </defs>
       <use xlink:href="#TimesNewRomanPSMT-38"/>
       <use x="50" xlink:href="#TimesNewRomanPSMT-30"/>
       <use x="100" xlink:href="#TimesNewRomanPSMT-30"/>
      </g>
     </g>
    </g>
    <g id="xtick_6">
     <g id="line2d_17">
      <g>
       <use style="stroke:#000000;stroke-width:0.8;" x="167.501563" xlink:href="#md483d76c6e" y="260.238238"/>
      </g>
     </g>
     <g id="text_8">
      <!-- 1000 -->
      <g transform="translate(157.501563 274.181988)scale(0.1 -0.1)">
       <use xlink:href="#TimesNewRomanPSMT-31"/>
       <use x="50" xlink:href="#TimesNewRomanPSMT-30"/>
       <use x="100" xlink:href="#TimesNewRomanPSMT-30"/>
       <use x="150" xlink:href="#TimesNewRomanPSMT-30"/>
      </g>
     </g>
    </g>
    <g id="text_9">
     <!-- Battery capacity in kWh -->
     <g transform="translate(53.669531 287.264801)scale(0.1 -0.1)">
      <defs>
       <path d="M 2956 2163 
Q 3397 2069 3616 1863 
Q 3919 1575 3919 1159 
Q 3919 844 3719 555 
Q 3519 266 3170 133 
Q 2822 0 2106 0 
L 106 0 
L 106 116 
L 266 116 
Q 531 116 647 284 
Q 719 394 719 750 
L 719 3488 
Q 719 3881 628 3984 
Q 506 4122 266 4122 
L 106 4122 
L 106 4238 
L 1938 4238 
Q 2450 4238 2759 4163 
Q 3228 4050 3475 3764 
Q 3722 3478 3722 3106 
Q 3722 2788 3528 2536 
Q 3334 2284 2956 2163 
z
M 1319 2331 
Q 1434 2309 1582 2298 
Q 1731 2288 1909 2288 
Q 2366 2288 2595 2386 
Q 2825 2484 2947 2687 
Q 3069 2891 3069 3131 
Q 3069 3503 2766 3765 
Q 2463 4028 1881 4028 
Q 1569 4028 1319 3959 
L 1319 2331 
z
M 1319 306 
Q 1681 222 2034 222 
Q 2600 222 2897 476 
Q 3194 731 3194 1106 
Q 3194 1353 3059 1581 
Q 2925 1809 2622 1940 
Q 2319 2072 1872 2072 
Q 1678 2072 1540 2065 
Q 1403 2059 1319 2044 
L 1319 306 
z
" id="TimesNewRomanPSMT-42" transform="scale(0.015625)"/>
       <path d="M 681 1784 
Q 678 1147 991 784 
Q 1303 422 1725 422 
Q 2006 422 2214 576 
Q 2422 731 2563 1106 
L 2659 1044 
Q 2594 616 2278 264 
Q 1963 -88 1488 -88 
Q 972 -88 605 314 
Q 238 716 238 1394 
Q 238 2128 614 2539 
Q 991 2950 1559 2950 
Q 2041 2950 2350 2633 
Q 2659 2316 2659 1784 
L 681 1784 
z
M 681 1966 
L 2006 1966 
Q 1991 2241 1941 2353 
Q 1863 2528 1708 2628 
Q 1553 2728 1384 2728 
Q 1125 2728 920 2526 
Q 716 2325 681 1966 
z
" id="TimesNewRomanPSMT-65" transform="scale(0.015625)"/>
       <path d="M 1038 2947 
L 1038 2303 
Q 1397 2947 1775 2947 
Q 1947 2947 2059 2842 
Q 2172 2738 2172 2600 
Q 2172 2478 2090 2393 
Q 2009 2309 1897 2309 
Q 1788 2309 1652 2417 
Q 1516 2525 1450 2525 
Q 1394 2525 1328 2463 
Q 1188 2334 1038 2041 
L 1038 669 
Q 1038 431 1097 309 
Q 1138 225 1241 169 
Q 1344 113 1538 113 
L 1538 0 
L 72 0 
L 72 113 
Q 291 113 397 181 
Q 475 231 506 341 
Q 522 394 522 644 
L 522 1753 
Q 522 2253 501 2348 
Q 481 2444 426 2487 
Q 372 2531 291 2531 
Q 194 2531 72 2484 
L 41 2597 
L 906 2947 
L 1038 2947 
z
" id="TimesNewRomanPSMT-72" transform="scale(0.015625)"/>
       <path d="M 2631 1088 
Q 2516 522 2178 217 
Q 1841 -88 1431 -88 
Q 944 -88 581 321 
Q 219 731 219 1428 
Q 219 2103 620 2525 
Q 1022 2947 1584 2947 
Q 2006 2947 2278 2723 
Q 2550 2500 2550 2259 
Q 2550 2141 2473 2067 
Q 2397 1994 2259 1994 
Q 2075 1994 1981 2113 
Q 1928 2178 1911 2362 
Q 1894 2547 1784 2644 
Q 1675 2738 1481 2738 
Q 1169 2738 978 2506 
Q 725 2200 725 1697 
Q 725 1184 976 792 
Q 1228 400 1656 400 
Q 1963 400 2206 609 
Q 2378 753 2541 1131 
L 2631 1088 
z
" id="TimesNewRomanPSMT-63" transform="scale(0.015625)"/>
       <path d="M -6 2578 
L 875 2934 
L 994 2934 
L 994 2266 
Q 1216 2644 1439 2795 
Q 1663 2947 1909 2947 
Q 2341 2947 2628 2609 
Q 2981 2197 2981 1534 
Q 2981 794 2556 309 
Q 2206 -88 1675 -88 
Q 1444 -88 1275 -22 
Q 1150 25 994 166 
L 994 -706 
Q 994 -1000 1030 -1079 
Q 1066 -1159 1155 -1206 
Q 1244 -1253 1478 -1253 
L 1478 -1369 
L -22 -1369 
L -22 -1253 
L 56 -1253 
Q 228 -1256 350 -1188 
Q 409 -1153 442 -1076 
Q 475 -1000 475 -688 
L 475 2019 
Q 475 2297 450 2372 
Q 425 2447 370 2484 
Q 316 2522 222 2522 
Q 147 2522 31 2478 
L -6 2578 
z
M 994 2081 
L 994 1013 
Q 994 666 1022 556 
Q 1066 375 1236 237 
Q 1406 100 1666 100 
Q 1978 100 2172 344 
Q 2425 663 2425 1241 
Q 2425 1897 2138 2250 
Q 1938 2494 1663 2494 
Q 1513 2494 1366 2419 
Q 1253 2363 994 2081 
z
" id="TimesNewRomanPSMT-70" transform="scale(0.015625)"/>
       <path d="M 5991 4238 
L 5991 4122 
Q 5825 4122 5722 4062 
Q 5619 4003 5525 3841 
Q 5463 3731 5328 3319 
L 4147 -97 
L 4022 -97 
L 3056 2613 
L 2097 -97 
L 1984 -97 
L 725 3422 
Q 584 3816 547 3888 
Q 484 4006 376 4064 
Q 269 4122 84 4122 
L 84 4238 
L 1653 4238 
L 1653 4122 
L 1578 4122 
Q 1413 4122 1325 4047 
Q 1238 3972 1238 3866 
Q 1238 3756 1375 3363 
L 2209 984 
L 2913 3006 
L 2788 3363 
L 2688 3647 
Q 2622 3803 2541 3922 
Q 2500 3981 2441 4022 
Q 2363 4078 2284 4103 
Q 2225 4122 2097 4122 
L 2097 4238 
L 3747 4238 
L 3747 4122 
L 3634 4122 
Q 3459 4122 3378 4047 
Q 3297 3972 3297 3844 
Q 3297 3684 3438 3288 
L 4250 984 
L 5056 3319 
Q 5194 3706 5194 3856 
Q 5194 3928 5148 3990 
Q 5103 4053 5034 4078 
Q 4916 4122 4725 4122 
L 4725 4238 
L 5991 4238 
z
" id="TimesNewRomanPSMT-57" transform="scale(0.015625)"/>
       <path d="M 1041 4444 
L 1041 2350 
Q 1388 2731 1591 2839 
Q 1794 2947 1997 2947 
Q 2241 2947 2416 2812 
Q 2591 2678 2675 2391 
Q 2734 2191 2734 1659 
L 2734 647 
Q 2734 375 2778 275 
Q 2809 200 2884 156 
Q 2959 113 3159 113 
L 3159 0 
L 1753 0 
L 1753 113 
L 1819 113 
Q 2019 113 2097 173 
Q 2175 234 2206 353 
Q 2216 403 2216 647 
L 2216 1659 
Q 2216 2128 2167 2275 
Q 2119 2422 2012 2495 
Q 1906 2569 1756 2569 
Q 1603 2569 1437 2487 
Q 1272 2406 1041 2159 
L 1041 647 
Q 1041 353 1073 281 
Q 1106 209 1195 161 
Q 1284 113 1503 113 
L 1503 0 
L 84 0 
L 84 113 
Q 275 113 384 172 
Q 447 203 484 290 
Q 522 378 522 647 
L 522 3238 
Q 522 3728 498 3840 
Q 475 3953 426 3993 
Q 378 4034 297 4034 
Q 231 4034 84 3984 
L 41 4094 
L 897 4444 
L 1041 4444 
z
" id="TimesNewRomanPSMT-68" transform="scale(0.015625)"/>
      </defs>
      <use xlink:href="#TimesNewRomanPSMT-42"/>
      <use x="66.699219" xlink:href="#TimesNewRomanPSMT-61"/>
      <use x="111.083984" xlink:href="#TimesNewRomanPSMT-74"/>
      <use x="138.867188" xlink:href="#TimesNewRomanPSMT-74"/>
      <use x="166.650391" xlink:href="#TimesNewRomanPSMT-65"/>
      <use x="211.035156" xlink:href="#TimesNewRomanPSMT-72"/>
      <use x="244.335938" xlink:href="#TimesNewRomanPSMT-79"/>
      <use x="294.335938" xlink:href="#TimesNewRomanPSMT-20"/>
      <use x="319.335938" xlink:href="#TimesNewRomanPSMT-63"/>
      <use x="363.720703" xlink:href="#TimesNewRomanPSMT-61"/>
      <use x="408.105469" xlink:href="#TimesNewRomanPSMT-70"/>
      <use x="458.105469" xlink:href="#TimesNewRomanPSMT-61"/>
      <use x="502.490234" xlink:href="#TimesNewRomanPSMT-63"/>
      <use x="546.875" xlink:href="#TimesNewRomanPSMT-69"/>
      <use x="574.658203" xlink:href="#TimesNewRomanPSMT-74"/>
      <use x="602.441406" xlink:href="#TimesNewRomanPSMT-79"/>
      <use x="652.441406" xlink:href="#TimesNewRomanPSMT-20"/>
      <use x="677.441406" xlink:href="#TimesNewRomanPSMT-69"/>
      <use x="705.224609" xlink:href="#TimesNewRomanPSMT-6e"/>
      <use x="755.224609" xlink:href="#TimesNewRomanPSMT-20"/>
      <use x="780.224609" xlink:href="#TimesNewRomanPSMT-6b"/>
      <use x="830.224609" xlink:href="#TimesNewRomanPSMT-57"/>
      <use x="924.609375" xlink:href="#TimesNewRomanPSMT-68"/>
     </g>
    </g>
   </g>
   <g id="matplotlib.axis_4">
    <g id="ytick_4">
     <g id="line2d_18">
      <g>
       <use style="stroke:#000000;stroke-width:0.8;" x="37.301563" xlink:href="#m9fb0837c9b" y="260.238238"/>
      </g>
     </g>
     <g id="text_10">
      <!-- 0 -->
      <g transform="translate(25.301563 263.710113)scale(0.1 -0.1)">
       <use xlink:href="#TimesNewRomanPSMT-30"/>
      </g>
     </g>
    </g>
    <g id="ytick_5">
     <g id="line2d_19">
      <g>
       <use style="stroke:#000000;stroke-width:0.8;" x="37.301563" xlink:href="#m9fb0837c9b" y="218.263677"/>
      </g>
     </g>
     <g id="text_11">
      <!-- 10 -->
      <g transform="translate(20.301563 221.735552)scale(0.1 -0.1)">
       <use xlink:href="#TimesNewRomanPSMT-31"/>
       <use x="50" xlink:href="#TimesNewRomanPSMT-30"/>
      </g>
     </g>
    </g>
    <g id="ytick_6">
     <g id="line2d_20">
      <g>
       <use style="stroke:#000000;stroke-width:0.8;" x="37.301563" xlink:href="#m9fb0837c9b" y="176.289116"/>
      </g>
     </g>
     <g id="text_12">
      <!-- 20 -->
      <g transform="translate(20.301563 179.760991)scale(0.1 -0.1)">
       <use xlink:href="#TimesNewRomanPSMT-32"/>
       <use x="50" xlink:href="#TimesNewRomanPSMT-30"/>
      </g>
     </g>
    </g>
    <g id="text_13">
     <!-- Payload in t -->
     <g transform="translate(14.14375 229.558028)rotate(-90)scale(0.1 -0.1)">
      <use xlink:href="#TimesNewRomanPSMT-50"/>
      <use x="55.615234" xlink:href="#TimesNewRomanPSMT-61"/>
      <use x="100" xlink:href="#TimesNewRomanPSMT-79"/>
      <use x="150" xlink:href="#TimesNewRomanPSMT-6c"/>
      <use x="177.783203" xlink:href="#TimesNewRomanPSMT-6f"/>
      <use x="227.783203" xlink:href="#TimesNewRomanPSMT-61"/>
      <use x="272.167969" xlink:href="#TimesNewRomanPSMT-64"/>
      <use x="322.167969" xlink:href="#TimesNewRomanPSMT-20"/>
      <use x="347.167969" xlink:href="#TimesNewRomanPSMT-69"/>
      <use x="374.951172" xlink:href="#TimesNewRomanPSMT-6e"/>
      <use x="424.951172" xlink:href="#TimesNewRomanPSMT-20"/>
      <use x="449.951172" xlink:href="#TimesNewRomanPSMT-74"/>
     </g>
    </g>
   </g>
   <g id="line2d_21">
    <path clip-path="url(#p7dd723e0f4)" d="M 102.401563 172.09166 
L 115.421563 163.696748 
L 128.441563 163.696748 
L 141.461563 163.696748 
L 154.481563 163.696748 
L 167.501563 163.696748 
" style="fill:none;stroke:#0a2d57;stroke-linecap:square;stroke-opacity:0.5;stroke-width:1.5;"/>
   </g>
   <g id="line2d_22">
    <path clip-path="url(#p7dd723e0f4)" d="M 102.401563 163.696748 
L 115.421563 163.696748 
L 128.441563 155.301836 
L 141.461563 155.301836 
L 154.481563 155.301836 
L 167.501563 155.301836 
" style="fill:none;stroke:#0a2d57;stroke-dasharray:1.5,2.475;stroke-dashoffset:0;stroke-width:1.5;"/>
   </g>
   <g id="line2d_23">
    <path clip-path="url(#p7dd723e0f4)" d="M 102.401563 172.09166 
L 115.421563 172.09166 
L 128.441563 172.09166 
L 141.461563 172.09166 
L 154.481563 172.09166 
L 167.501563 163.696748 
" style="fill:none;stroke:#0a2d57;stroke-dasharray:5.55,2.4;stroke-dashoffset:0;stroke-width:1.5;"/>
   </g>
   <g id="line2d_24">
    <path clip-path="url(#p7dd723e0f4)" d="M 102.401563 172.09166 
L 115.421563 172.09166 
L 128.441563 172.09166 
L 141.461563 172.09166 
L 154.481563 172.09166 
L 167.501563 172.09166 
" style="fill:none;stroke:#e37222;stroke-dasharray:1.5,2.475;stroke-dashoffset:0;stroke-width:1.5;"/>
   </g>
   <g id="line2d_25">
    <path clip-path="url(#p7dd723e0f4)" d="M 102.401563 155.301836 
L 115.421563 155.301836 
L 128.441563 155.301836 
L 141.461563 146.906924 
L 154.481563 146.906924 
L 167.501563 146.906924 
" style="fill:none;stroke:#e37222;stroke-dasharray:5.55,2.4;stroke-dashoffset:0;stroke-width:1.5;"/>
   </g>
   <g id="patch_10">
    <path d="M 37.301563 260.238238 
L 37.301563 151.10438 
" style="fill:none;stroke:#000000;stroke-linecap:square;stroke-linejoin:miter;stroke-width:0.8;"/>
   </g>
   <g id="patch_11">
    <path d="M 167.501563 260.238238 
L 167.501563 151.10438 
" style="fill:none;stroke:#000000;stroke-linecap:square;stroke-linejoin:miter;stroke-width:0.8;"/>
   </g>
   <g id="patch_12">
    <path d="M 37.301563 260.238238 
L 167.501563 260.238238 
" style="fill:none;stroke:#000000;stroke-linecap:square;stroke-linejoin:miter;stroke-width:0.8;"/>
   </g>
   <g id="patch_13">
    <path d="M 37.301563 151.10438 
L 167.501563 151.10438 
" style="fill:none;stroke:#000000;stroke-linecap:square;stroke-linejoin:miter;stroke-width:0.8;"/>
   </g>
   <g id="text_14">
    <!-- LFP  -->
    <g style="fill:#475058;" transform="translate(89.381563 218.281339)scale(0.08 -0.08)">
     <defs>
      <path d="M 3669 1172 
L 3772 1150 
L 3409 0 
L 128 0 
L 128 116 
L 288 116 
Q 556 116 672 291 
Q 738 391 738 753 
L 738 3488 
Q 738 3884 650 3984 
Q 528 4122 288 4122 
L 128 4122 
L 128 4238 
L 2047 4238 
L 2047 4122 
Q 1709 4125 1573 4059 
Q 1438 3994 1388 3894 
Q 1338 3794 1338 3416 
L 1338 753 
Q 1338 494 1388 397 
Q 1425 331 1503 300 
Q 1581 269 1991 269 
L 2300 269 
Q 2788 269 2984 341 
Q 3181 413 3343 595 
Q 3506 778 3669 1172 
z
" id="TimesNewRomanPSMT-4c" transform="scale(0.015625)"/>
      <path d="M 1309 4006 
L 1309 2341 
L 2081 2341 
Q 2347 2341 2470 2458 
Q 2594 2575 2634 2922 
L 2750 2922 
L 2750 1488 
L 2634 1488 
Q 2631 1734 2570 1850 
Q 2509 1966 2401 2023 
Q 2294 2081 2081 2081 
L 1309 2081 
L 1309 750 
Q 1309 428 1350 325 
Q 1381 247 1481 191 
Q 1619 116 1769 116 
L 1922 116 
L 1922 0 
L 103 0 
L 103 116 
L 253 116 
Q 516 116 634 269 
Q 709 369 709 750 
L 709 3488 
Q 709 3809 669 3913 
Q 638 3991 541 4047 
Q 406 4122 253 4122 
L 103 4122 
L 103 4238 
L 3256 4238 
L 3297 3306 
L 3188 3306 
Q 3106 3603 2998 3742 
Q 2891 3881 2733 3943 
Q 2575 4006 2244 4006 
L 1309 4006 
z
" id="TimesNewRomanPSMT-46" transform="scale(0.015625)"/>
     </defs>
     <use xlink:href="#TimesNewRomanPSMT-4c"/>
     <use x="61.083984" xlink:href="#TimesNewRomanPSMT-46"/>
     <use x="116.699219" xlink:href="#TimesNewRomanPSMT-50"/>
     <use x="168.564453" xlink:href="#TimesNewRomanPSMT-20"/>
    </g>
    <!-- not feasible -->
    <g style="fill:#475058;" transform="translate(89.381563 226.658589)scale(0.08 -0.08)">
     <defs>
      <path d="M 1319 2638 
L 1319 756 
Q 1319 356 1406 250 
Q 1522 113 1716 113 
L 1975 113 
L 1975 0 
L 266 0 
L 266 113 
L 394 113 
Q 519 113 622 175 
Q 725 238 764 344 
Q 803 450 803 756 
L 803 2638 
L 247 2638 
L 247 2863 
L 803 2863 
L 803 3050 
Q 803 3478 940 3775 
Q 1078 4072 1361 4255 
Q 1644 4438 1997 4438 
Q 2325 4438 2600 4225 
Q 2781 4084 2781 3909 
Q 2781 3816 2700 3733 
Q 2619 3650 2525 3650 
Q 2453 3650 2373 3701 
Q 2294 3753 2178 3923 
Q 2063 4094 1966 4153 
Q 1869 4213 1750 4213 
Q 1606 4213 1506 4136 
Q 1406 4059 1362 3898 
Q 1319 3738 1319 3069 
L 1319 2863 
L 2056 2863 
L 2056 2638 
L 1319 2638 
z
" id="TimesNewRomanPSMT-66" transform="scale(0.015625)"/>
      <path d="M 2050 2947 
L 2050 1972 
L 1947 1972 
Q 1828 2431 1642 2597 
Q 1456 2763 1169 2763 
Q 950 2763 815 2647 
Q 681 2531 681 2391 
Q 681 2216 781 2091 
Q 878 1963 1175 1819 
L 1631 1597 
Q 2266 1288 2266 781 
Q 2266 391 1970 151 
Q 1675 -88 1309 -88 
Q 1047 -88 709 6 
Q 606 38 541 38 
Q 469 38 428 -44 
L 325 -44 
L 325 978 
L 428 978 
Q 516 541 762 319 
Q 1009 97 1316 97 
Q 1531 97 1667 223 
Q 1803 350 1803 528 
Q 1803 744 1651 891 
Q 1500 1038 1047 1263 
Q 594 1488 453 1669 
Q 313 1847 313 2119 
Q 313 2472 555 2709 
Q 797 2947 1181 2947 
Q 1350 2947 1591 2875 
Q 1750 2828 1803 2828 
Q 1853 2828 1881 2850 
Q 1909 2872 1947 2947 
L 2050 2947 
z
" id="TimesNewRomanPSMT-73" transform="scale(0.015625)"/>
      <path d="M 984 2369 
Q 1400 2947 1881 2947 
Q 2322 2947 2650 2570 
Q 2978 2194 2978 1541 
Q 2978 778 2472 313 
Q 2038 -88 1503 -88 
Q 1253 -88 995 3 
Q 738 94 469 275 
L 469 3241 
Q 469 3728 445 3840 
Q 422 3953 372 3993 
Q 322 4034 247 4034 
Q 159 4034 28 3984 
L -16 4094 
L 844 4444 
L 984 4444 
L 984 2369 
z
M 984 2169 
L 984 456 
Q 1144 300 1314 220 
Q 1484 141 1663 141 
Q 1947 141 2192 453 
Q 2438 766 2438 1363 
Q 2438 1913 2192 2208 
Q 1947 2503 1634 2503 
Q 1469 2503 1303 2419 
Q 1178 2356 984 2169 
z
" id="TimesNewRomanPSMT-62" transform="scale(0.015625)"/>
     </defs>
     <use xlink:href="#TimesNewRomanPSMT-6e"/>
     <use x="50" xlink:href="#TimesNewRomanPSMT-6f"/>
     <use x="100" xlink:href="#TimesNewRomanPSMT-74"/>
     <use x="127.783203" xlink:href="#TimesNewRomanPSMT-20"/>
     <use x="152.783203" xlink:href="#TimesNewRomanPSMT-66"/>
     <use x="186.083984" xlink:href="#TimesNewRomanPSMT-65"/>
     <use x="230.46875" xlink:href="#TimesNewRomanPSMT-61"/>
     <use x="274.853516" xlink:href="#TimesNewRomanPSMT-73"/>
     <use x="313.769531" xlink:href="#TimesNewRomanPSMT-69"/>
     <use x="341.552734" xlink:href="#TimesNewRomanPSMT-62"/>
     <use x="391.552734" xlink:href="#TimesNewRomanPSMT-6c"/>
     <use x="419.335938" xlink:href="#TimesNewRomanPSMT-65"/>
    </g>
   </g>
   <g id="text_15">
    <!-- LFP  -->
    <g style="fill:#475058;" transform="translate(89.381563 218.281339)scale(0.08 -0.08)">
     <use xlink:href="#TimesNewRomanPSMT-4c"/>
     <use x="61.083984" xlink:href="#TimesNewRomanPSMT-46"/>
     <use x="116.699219" xlink:href="#TimesNewRomanPSMT-50"/>
     <use x="168.564453" xlink:href="#TimesNewRomanPSMT-20"/>
    </g>
    <!-- not feasible -->
    <g style="fill:#475058;" transform="translate(89.381563 226.658589)scale(0.08 -0.08)">
     <use xlink:href="#TimesNewRomanPSMT-6e"/>
     <use x="50" xlink:href="#TimesNewRomanPSMT-6f"/>
     <use x="100" xlink:href="#TimesNewRomanPSMT-74"/>
     <use x="127.783203" xlink:href="#TimesNewRomanPSMT-20"/>
     <use x="152.783203" xlink:href="#TimesNewRomanPSMT-66"/>
     <use x="186.083984" xlink:href="#TimesNewRomanPSMT-65"/>
     <use x="230.46875" xlink:href="#TimesNewRomanPSMT-61"/>
     <use x="274.853516" xlink:href="#TimesNewRomanPSMT-73"/>
     <use x="313.769531" xlink:href="#TimesNewRomanPSMT-69"/>
     <use x="341.552734" xlink:href="#TimesNewRomanPSMT-62"/>
     <use x="391.552734" xlink:href="#TimesNewRomanPSMT-6c"/>
     <use x="419.335938" xlink:href="#TimesNewRomanPSMT-65"/>
    </g>
   </g>
   <g id="PolyCollection_3">
    <path clip-path="url(#p7dd723e0f4)" d="M 167.501563 260.238238 
L 133.190608 260.238238 
L 133.190608 251.843326 
L 133.190608 243.448414 
L 133.190608 235.053502 
L 133.190608 226.658589 
L 133.190608 218.263677 
L 133.190608 209.868765 
L 133.190608 201.473853 
L 133.190608 193.078941 
L 133.190608 184.684029 
L 133.190608 176.289116 
L 133.190608 167.894204 
L 133.190608 159.499292 
L 133.190608 151.10438 
L 133.190608 142.709468 
L 167.501563 142.709468 
L 167.501563 142.709468 
L 167.501563 151.10438 
L 167.501563 159.499292 
L 167.501563 167.894204 
L 167.501563 176.289116 
L 167.501563 184.684029 
L 167.501563 193.078941 
L 167.501563 201.473853 
L 167.501563 209.868765 
L 167.501563 218.263677 
L 167.501563 226.658589 
L 167.501563 235.053502 
L 167.501563 243.448414 
L 167.501563 251.843326 
L 167.501563 260.238238 
z
" style="fill:url(#hd050d8d562);stroke:#0065bd;"/>
   </g>
   <g id="PolyCollection_4">
    <path clip-path="url(#p7dd723e0f4)" d="M 37.301563 151.10438 
L 37.301563 154.752978 
L 50.321563 156.05597 
L 63.341562 157.358961 
L 76.361563 158.661952 
L 89.381563 159.964943 
L 102.401563 161.267935 
L 115.421563 162.570926 
L 128.441563 163.873917 
L 141.461563 165.176908 
L 154.481563 166.4799 
L 167.501563 167.782891 
L 167.501563 151.10438 
L 167.501563 151.10438 
L 154.481563 151.10438 
L 141.461563 151.10438 
L 128.441563 151.10438 
L 115.421563 151.10438 
L 102.401563 151.10438 
L 89.381563 151.10438 
L 76.361563 151.10438 
L 63.341562 151.10438 
L 50.321563 151.10438 
L 37.301563 151.10438 
z
" style="fill:url(#h7731a153f2);stroke:#a2ad00;"/>
   </g>
   <g id="line2d_26">
    <path clip-path="url(#p7dd723e0f4)" d="M 37.301563 158.518264 
L 50.321563 160.197784 
L 63.341562 161.877304 
L 76.361563 163.556824 
L 89.381563 165.236344 
L 102.401563 166.915864 
L 115.421563 168.595384 
L 128.441563 170.274904 
L 141.461563 171.954423 
L 154.481563 173.633943 
L 167.501563 175.313463 
" style="fill:none;stroke:#a2ad00;stroke-dasharray:1.5,2.475;stroke-dashoffset:0;stroke-width:1.5;"/>
   </g>
  </g>
 </g>
 <defs>
  <clipPath id="p2fa758eac7">
   <rect height="109.133858" width="130.2" x="37.301563" y="20.14375"/>
  </clipPath>
  <clipPath id="p7dd723e0f4">
   <rect height="109.133858" width="130.2" x="37.301563" y="151.10438"/>
  </clipPath>
 </defs>
 <defs>
  <pattern height="72" id="hd050d8d562" patternUnits="userSpaceOnUse" width="72" x="0" y="0">
   <rect fill="#ffffff" height="73" width="73" x="0" y="0"/>
   <path d="M -36 36 
L 36 -36 
M -32 40 
L 40 -32 
M -28 44 
L 44 -28 
M -24 48 
L 48 -24 
M -20 52 
L 52 -20 
M -16 56 
L 56 -16 
M -12 60 
L 60 -12 
M -8 64 
L 64 -8 
M -4 68 
L 68 -4 
M 0 72 
L 72 0 
M 4 76 
L 76 4 
M 8 80 
L 80 8 
M 12 84 
L 84 12 
M 16 88 
L 88 16 
M 20 92 
L 92 20 
M 24 96 
L 96 24 
M 28 100 
L 100 28 
M 32 104 
L 104 32 
M 36 108 
L 108 36 
" style="fill:#0065bd;stroke:#0065bd;stroke-linecap:butt;stroke-linejoin:miter;stroke-width:0.5;"/>
  </pattern>
  <pattern height="72" id="h7731a153f2" patternUnits="userSpaceOnUse" width="72" x="0" y="0">
   <rect fill="#ffffff" height="73" width="73" x="0" y="0"/>
   <path d="M -36 36 
L 36 -36 
M -32 40 
L 40 -32 
M -28 44 
L 44 -28 
M -24 48 
L 48 -24 
M -20 52 
L 52 -20 
M -16 56 
L 56 -16 
M -12 60 
L 60 -12 
M -8 64 
L 64 -8 
M -4 68 
L 68 -4 
M 0 72 
L 72 0 
M 4 76 
L 76 4 
M 8 80 
L 80 8 
M 12 84 
L 84 12 
M 16 88 
L 88 16 
M 20 92 
L 92 20 
M 24 96 
L 96 24 
M 28 100 
L 100 28 
M 32 104 
L 104 32 
M 36 108 
L 108 36 
" style="fill:#a2ad00;stroke:#a2ad00;stroke-linecap:butt;stroke-linejoin:miter;stroke-width:0.5;"/>
  </pattern>
 </defs>
</svg>
